<?xml version="1.0" encoding="utf-8"?>
<!-- Generator: Adobe Illustrator 20.1.0, SVG Export Plug-In . SVG Version: 6.00 Build 0)  -->
<svg version="1.1" id="Слой_1" xmlns="http://www.w3.org/2000/svg" xmlns:xlink="http://www.w3.org/1999/xlink" x="0px" y="0px"
	 viewBox="0 0 406.75 403.77" style="enable-background:new 0 0 406.75 403.77;" xml:space="preserve">
<style type="text/css">
	.st0{clip-path:url(#SVGID_2_);}
</style>
<g>
	<defs>
		<rect id="SVGID_1_" width="406.75" height="403.77"/>
	</defs>
	<clipPath id="SVGID_2_">
		<use xlink:href="#SVGID_1_"  style="overflow:visible;"/>
	</clipPath>
	<path class="st0" d="M0,101.36c0,2.22,1.8,4.02,4.02,4.02s4.02-1.8,4.02-4.02V56.91c0-4.42,3.6-8.02,8.02-8.02h123.95l0.24,1.73
		c0.29,2.08,0.88,4.09,1.75,5.96l0.63,1.34l-53,48.02l-1.29-0.85c-3.39-2.22-7.32-3.39-11.37-3.39c-11.49,0-20.83,9.35-20.83,20.83
		c0,11.49,9.35,20.83,20.83,20.83c11.49,0,20.83-9.35,20.83-20.83c0-3.23-0.73-6.33-2.16-9.22l-0.67-1.35l52.85-47.88l1.3,0.9
		c3.48,2.39,7.55,3.65,11.76,3.65c5.71,0,11.04-2.28,15.02-6.42l1.1-1.15l43.57,25.88l-0.28,1.39c-0.28,1.36-0.42,2.76-0.42,4.15
		c0,11.49,9.35,20.83,20.83,20.83s20.83-9.35,20.83-20.83c0-2.91-0.6-5.74-1.77-8.4l-0.58-1.32l37.02-33.87h94.5
		c4.42,0,8.02,3.6,8.02,8.02v148.73c0,2.22,1.8,4.02,4.02,4.02s4.02-1.8,4.02-4.02V56.91c0-8.85-7.2-16.06-16.06-16.06H328.7
		l4.59-3.58c5.12-3.99,8.06-9.98,8.06-16.44C341.36,9.35,332.01,0,320.53,0c-11.49,0-20.83,9.35-20.83,20.83
		c0,3.43,0.81,6.7,2.41,9.72l0.72,1.37l-9.76,8.93h-112.5l-0.52-1.21c-3.29-7.71-10.82-12.69-19.17-12.69
		c-8.36,0-15.88,4.98-19.17,12.69l-0.52,1.21H16.06C7.2,40.85,0,48.05,0,56.91V101.36z M76.95,135.33c-7.06,0-12.8-5.74-12.8-12.8
		c0-7.06,5.74-12.8,12.8-12.8c7.06,0,12.79,5.74,12.79,12.8C89.75,129.59,84.01,135.33,76.95,135.33 M320.52,8.04
		c7.06,0,12.8,5.74,12.8,12.8c0,3.41-1.33,6.63-3.75,9.05c-2.42,2.42-5.63,3.75-9.04,3.75c-7.06,0-12.8-5.74-12.8-12.8
		C307.73,13.78,313.47,8.04,320.52,8.04 M240.7,105.27c-7.05,0-12.79-5.74-12.79-12.8s5.74-12.8,12.79-12.8
		c7.06,0,12.8,5.74,12.8,12.8C253.49,99.53,247.75,105.27,240.7,105.27 M181.15,52.55c0.15-0.63,0.27-1.29,0.36-1.93l0.24-1.73
		h102.54l-30.16,27.6l-1.32-0.95c-3.56-2.55-7.74-3.9-12.11-3.9c-5.86,0-11.49,2.5-15.44,6.87l-1.1,1.21l-43.34-25.74L181.15,52.55z
		 M160.87,34.99c7.06,0,12.8,5.74,12.8,12.8c0,7.05-5.74,12.79-12.8,12.79c-7.06,0-12.8-5.74-12.8-12.79
		C148.08,40.73,153.82,34.99,160.87,34.99"/>
	<path class="st0" d="M406.74,281.13l0-51.42c0-2.22-1.8-4.02-4.02-4.02c-2.22,0-4.02,1.8-4.02,4.02v47.28h-48.31V82.94
		c0-2.22-1.8-4.02-4.02-4.02H301.1c-2.22,0-4.02,1.8-4.02,4.02v194.05h-26.51v-82.11c0-2.22-1.8-4.02-4.02-4.02h-45.28
		c-2.22,0-4.02,1.8-4.02,4.02v82.11h-26.51v-159.8c0-2.22-1.8-4.02-4.02-4.02h-45.28c-2.21,0-4.02,1.8-4.02,4.02v83.15
		c0,2.22,1.8,4.02,4.02,4.02c2.22,0,4.02-1.8,4.02-4.02v-29.66h37.24v106.32h-37.24v-52.58c0-2.22-1.8-4.02-4.02-4.02
		c-2.21,0-4.02,1.8-4.02,4.02v52.58h-26.51v-82.11c0-2.22-1.8-4.02-4.02-4.02H61.62c-2.22,0-4.02,1.8-4.02,4.02v82.11H8.04V125.43
		c0-2.22-1.8-4.02-4.02-4.02c-2.22,0-4.02,1.8-4.02,4.02v199.21c0,8.85,7.2,16.06,16.06,16.06h134.07l-3.89,33.91h-30.36
		c-2.22,0-4.02,1.8-4.02,4.02v21.12c0,2.22,1.8,4.02,4.02,4.02h175c2.22,0,4.02-1.8,4.02-4.02v-21.12c0-2.22-1.8-4.02-4.02-4.02
		h-30.36l-3.89-33.91h134.07c8.85,0,16.06-7.2,16.06-16.06C406.75,324.58,406.74,281.51,406.74,281.13 M305.12,86.96h37.24v16.87
		h-37.24V86.96z M305.12,111.86h37.24v16.53h-37.24V111.86z M305.12,136.43h37.24v140.56h-37.24V136.43z M225.29,198.89h37.24v16.87
		h-37.24V198.89z M225.29,223.8h37.24v16.53h-37.24V223.8z M225.29,248.36h37.24v28.62h-37.24V248.36z M145.46,121.2h37.24v16.87
		h-37.24V121.2z M145.46,146.11h37.24v16.53h-37.24V146.11z M65.64,198.89h37.24v16.87H65.64V198.89z M65.64,223.8h37.24v16.53
		H65.64V223.8z M65.64,248.36h37.24v28.62H65.64V248.36z M286.85,395.73H119.89v-13.08h166.96V395.73z M154.32,374.61l3.89-33.91
		h90.31l3.89,33.91H154.32z M398.71,324.64c0,2.14-0.83,4.15-2.35,5.67c-1.52,1.52-3.53,2.35-5.67,2.35H16.06
		c-4.42,0-8.02-3.6-8.02-8.02v-39.39h390.67V324.64z"/>
</g>
</svg>
