<?xml version="1.0" encoding="utf-8"?>
<!-- Generator: Adobe Illustrator 20.1.0, SVG Export Plug-In . SVG Version: 6.00 Build 0)  -->
<svg version="1.1" id="Слой_1" xmlns="http://www.w3.org/2000/svg" xmlns:xlink="http://www.w3.org/1999/xlink" x="0px" y="0px"
	 viewBox="0 0 330.44 432.22" style="enable-background:new 0 0 330.44 432.22;" xml:space="preserve">
<style type="text/css">
	.st0{clip-path:url(#SVGID_2_);}
</style>
<g>
	<defs>
		<rect id="SVGID_1_" width="330.44" height="432.22"/>
	</defs>
	<clipPath id="SVGID_2_">
		<use xlink:href="#SVGID_1_"  style="overflow:visible;"/>
	</clipPath>
	<path class="st0" d="M310.63,392.6h-38.35v-45.62c0-53.94-29.45-103.41-76.85-129.11l-3.24-1.76l3.24-1.76
		c47.4-25.7,76.85-75.17,76.85-129.11V39.62h38.35c10.92,0,19.81-8.89,19.81-19.81C330.44,8.89,321.55,0,310.63,0H19.81
		C8.89,0,0,8.89,0,19.81c0,10.92,8.89,19.81,19.81,19.81h38.35v45.62c0,53.94,29.45,103.41,76.85,129.11l3.24,1.76l-3.24,1.76
		c-47.4,25.7-76.85,75.17-76.85,129.11v45.62H19.81C8.89,392.6,0,401.49,0,412.41c0,10.92,8.89,19.81,19.81,19.81h290.82
		c10.92,0,19.81-8.89,19.81-19.81C330.44,401.49,321.55,392.6,310.63,392.6 M19.81,29.08c-5.11,0-9.27-4.16-9.27-9.27
		c0-5.11,4.16-9.27,9.27-9.27h290.82c5.11,0,9.27,4.16,9.27,9.27c0,5.11-4.16,9.27-9.27,9.27H19.81z M68.7,85.25V39.62h193.03v45.62
		c0,54.66-32.45,103.89-82.66,125.43l-0.38,0.16h-26.96l-0.38-0.16C101.15,189.14,68.7,139.9,68.7,85.25 M68.7,346.98
		c0-54.66,32.45-103.9,82.66-125.44l0.38-0.16h26.96l0.38,0.16c50.21,21.54,82.65,70.78,82.65,125.44v43.62h-4
		c0-2.91-2.36-5.27-5.27-5.27c-2.91,0-5.27,2.37-5.27,5.27v2h-18.54v-2c0-2.91-2.36-5.27-5.27-5.27c-2.91,0-5.27,2.37-5.27,5.27v2
		h-18.54v-2c0-2.91-2.36-5.27-5.27-5.27c-2.91,0-5.27,2.37-5.27,5.27v2h-18.54v-2c0-2.91-2.36-5.27-5.27-5.27
		c-2.91,0-5.27,2.37-5.27,5.27v2h-18.54v-2c0-2.91-2.36-5.27-5.27-5.27c-2.91,0-5.27,2.37-5.27,5.27v2h-18.54v-2
		c0-2.91-2.36-5.27-5.27-5.27c-2.91,0-5.27,2.37-5.27,5.27v2H83.24v-2c0-2.91-2.36-5.27-5.27-5.27s-5.27,2.37-5.27,5.27h-4V346.98z
		 M310.63,421.68H19.81c-5.11,0-9.27-4.16-9.27-9.27c0-5.11,4.16-9.27,9.27-9.27h290.82c5.11,0,9.27,4.16,9.27,9.27
		C319.9,417.52,315.74,421.68,310.63,421.68"/>
	<path class="st0" d="M92.51,381.33c2.91,0,5.27-2.36,5.27-5.27c0-2.91-2.36-5.27-5.27-5.27c-2.91,0-5.27,2.36-5.27,5.27
		C87.24,378.97,89.61,381.33,92.51,381.33"/>
	<path class="st0" d="M116.33,376.06c0,2.91,2.36,5.27,5.27,5.27c2.91,0,5.27-2.37,5.27-5.27c0-2.91-2.36-5.27-5.27-5.27
		C118.69,370.79,116.33,373.15,116.33,376.06"/>
	<path class="st0" d="M150.68,381.33c2.91,0,5.27-2.36,5.27-5.27c0-2.91-2.37-5.27-5.27-5.27c-2.91,0-5.27,2.36-5.27,5.27
		C145.41,378.97,147.77,381.33,150.68,381.33"/>
	<path class="st0" d="M174.49,376.06c0,2.91,2.36,5.27,5.27,5.27c2.91,0,5.27-2.37,5.27-5.27c0-2.91-2.36-5.27-5.27-5.27
		C176.85,370.79,174.49,373.15,174.49,376.06"/>
	<path class="st0" d="M208.84,381.33c2.91,0,5.27-2.36,5.27-5.27c0-2.91-2.37-5.27-5.27-5.27c-2.91,0-5.27,2.36-5.27,5.27
		C203.57,378.97,205.93,381.33,208.84,381.33"/>
	<path class="st0" d="M232.65,376.06c0,2.91,2.36,5.27,5.27,5.27c2.91,0,5.27-2.37,5.27-5.27c0-2.91-2.36-5.27-5.27-5.27
		C235.02,370.79,232.65,373.15,232.65,376.06"/>
	<path class="st0" d="M107.06,366.79c2.91,0,5.27-2.36,5.27-5.27c0-2.91-2.36-5.27-5.27-5.27c-2.91,0-5.27,2.36-5.27,5.27
		C101.78,364.43,104.15,366.79,107.06,366.79"/>
	<path class="st0" d="M136.14,366.79c2.91,0,5.27-2.36,5.27-5.27c0-2.91-2.37-5.27-5.27-5.27c-2.91,0-5.27,2.36-5.27,5.27
		C130.87,364.43,133.23,366.79,136.14,366.79"/>
	<path class="st0" d="M165.22,243.19c2.91,0,5.27-2.36,5.27-5.27c0-2.91-2.37-5.27-5.27-5.27c-2.91,0-5.27,2.36-5.27,5.27
		C159.95,240.83,162.31,243.19,165.22,243.19"/>
	<path class="st0" d="M116.33,157.95c0,2.91,2.36,5.27,5.27,5.27c2.91,0,5.27-2.37,5.27-5.27c0-2.91-2.36-5.27-5.27-5.27
		C118.69,152.68,116.33,155.04,116.33,157.95"/>
	<path class="st0" d="M150.68,163.22c2.91,0,5.27-2.36,5.27-5.27c0-2.91-2.37-5.27-5.27-5.27c-2.91,0-5.27,2.36-5.27,5.27
		C145.41,160.86,147.77,163.22,150.68,163.22"/>
	<path class="st0" d="M174.49,157.95c0,2.91,2.36,5.27,5.27,5.27c2.91,0,5.27-2.37,5.27-5.27c0-2.91-2.36-5.27-5.27-5.27
		C176.85,152.68,174.49,155.04,174.49,157.95"/>
	<path class="st0" d="M214.11,157.95c0-2.91-2.36-5.27-5.27-5.27c-2.91,0-5.27,2.37-5.27,5.27c0,2.91,2.36,5.27,5.27,5.27
		C211.75,163.22,214.11,160.85,214.11,157.95"/>
	<path class="st0" d="M189.03,143.41c0,2.91,2.36,5.27,5.27,5.27c2.9,0,5.27-2.37,5.27-5.27c0-2.91-2.36-5.27-5.27-5.27
		C191.39,138.14,189.03,140.5,189.03,143.41"/>
	<path class="st0" d="M208.84,134.14c2.91,0,5.27-2.36,5.27-5.27c0-2.9-2.37-5.27-5.27-5.27c-2.91,0-5.27,2.36-5.27,5.27
		C203.57,131.77,205.93,134.14,208.84,134.14"/>
	<path class="st0" d="M136.14,148.68c2.91,0,5.27-2.36,5.27-5.27c0-2.91-2.37-5.27-5.27-5.27c-2.91,0-5.27,2.36-5.27,5.27
		C130.87,146.31,133.23,148.68,136.14,148.68"/>
	<path class="st0" d="M165.22,148.68c2.91,0,5.27-2.36,5.27-5.27c0-2.91-2.37-5.27-5.27-5.27c-2.91,0-5.27,2.36-5.27,5.27
		C159.95,146.31,162.31,148.68,165.22,148.68"/>
	<path class="st0" d="M116.33,128.87c0,2.91,2.36,5.27,5.27,5.27c2.91,0,5.27-2.37,5.27-5.27c0-2.9-2.36-5.27-5.27-5.27
		C118.69,123.6,116.33,125.96,116.33,128.87"/>
	<path class="st0" d="M141.41,172.49c0-2.91-2.36-5.27-5.27-5.27c-2.9,0-5.27,2.37-5.27,5.27c0,2.91,2.36,5.27,5.27,5.27
		C139.04,177.76,141.41,175.4,141.41,172.49"/>
	<path class="st0" d="M155.95,187.03c0-2.9-2.36-5.27-5.27-5.27c-2.91,0-5.27,2.36-5.27,5.27c0,2.91,2.36,5.27,5.27,5.27
		C153.58,192.3,155.95,189.94,155.95,187.03"/>
	<path class="st0" d="M179.76,181.76c-2.91,0-5.27,2.36-5.27,5.27c0,2.91,2.37,5.27,5.27,5.27c2.91,0,5.27-2.36,5.27-5.27
		C185.03,184.12,182.67,181.76,179.76,181.76"/>
	<path class="st0" d="M165.22,167.22c-2.91,0-5.27,2.36-5.27,5.27c0,2.91,2.37,5.27,5.27,5.27c2.91,0,5.27-2.36,5.27-5.27
		C170.49,169.58,168.12,167.22,165.22,167.22"/>
	<path class="st0" d="M194.3,167.22c-2.91,0-5.27,2.36-5.27,5.27c0,2.91,2.37,5.27,5.27,5.27c2.9,0,5.27-2.36,5.27-5.27
		C199.57,169.58,197.21,167.22,194.3,167.22"/>
	<path class="st0" d="M165.22,265c2.91,0,5.27-2.36,5.27-5.27c0-2.91-2.37-5.27-5.27-5.27c-2.91,0-5.27,2.36-5.27,5.27
		C159.95,262.64,162.31,265,165.22,265"/>
	<path class="st0" d="M165.22,286.82c2.91,0,5.27-2.36,5.27-5.27c0-2.91-2.37-5.27-5.27-5.27c-2.91,0-5.27,2.36-5.27,5.27
		C159.95,284.45,162.31,286.82,165.22,286.82"/>
	<path class="st0" d="M165.22,308.63c2.91,0,5.27-2.36,5.27-5.27c0-2.91-2.37-5.27-5.27-5.27c-2.91,0-5.27,2.36-5.27,5.27
		C159.95,306.26,162.31,308.63,165.22,308.63"/>
	<path class="st0" d="M165.22,330.44c2.91,0,5.27-2.36,5.27-5.27c0-2.91-2.37-5.27-5.27-5.27c-2.91,0-5.27,2.36-5.27,5.27
		C159.95,328.07,162.31,330.44,165.22,330.44"/>
	<path class="st0" d="M165.22,352.25c2.91,0,5.27-2.36,5.27-5.27c0-2.91-2.37-5.27-5.27-5.27c-2.91,0-5.27,2.36-5.27,5.27
		C159.95,349.89,162.31,352.25,165.22,352.25"/>
	<path class="st0" d="M189.03,361.52c0,2.9,2.36,5.27,5.27,5.27c2.9,0,5.27-2.36,5.27-5.27c0-2.91-2.36-5.27-5.27-5.27
		C191.39,356.25,189.03,358.61,189.03,361.52"/>
	<path class="st0" d="M223.38,366.79c2.91,0,5.27-2.36,5.27-5.27c0-2.91-2.37-5.27-5.27-5.27c-2.91,0-5.27,2.36-5.27,5.27
		C218.11,364.43,220.48,366.79,223.38,366.79"/>
</g>
</svg>
