<?xml version="1.0" encoding="utf-8"?>
<!-- Generator: Adobe Illustrator 20.1.0, SVG Export Plug-In . SVG Version: 6.00 Build 0)  -->
<svg version="1.1" id="Слой_1" xmlns="http://www.w3.org/2000/svg" xmlns:xlink="http://www.w3.org/1999/xlink" x="0px" y="0px"
	 viewBox="0 0 333.54 333.55" style="enable-background:new 0 0 333.54 333.55;" xml:space="preserve">
<style type="text/css">
	.st0{clip-path:url(#SVGID_2_);}
</style>
<g>
	<defs>
		<rect id="SVGID_1_" width="333.54" height="333.55"/>
	</defs>
	<clipPath id="SVGID_2_">
		<use xlink:href="#SVGID_1_"  style="overflow:visible;"/>
	</clipPath>
	<path class="st0" d="M185.88,0l-33.31,33.2l-1.15-0.1C69.27,26.26,3.59,72.42,2.93,72.89c-0.77,0.55-1.27,1.36-1.43,2.29
		c-0.15,0.93,0.06,1.86,0.61,2.62c0.66,0.92,1.73,1.47,2.87,1.47c0.73,0,1.43-0.23,2.03-0.66c0.59-0.42,58.9-41.28,133.24-39.11
		l5.81,0.17L36.09,149.3l-1.7,1.79L0,185.39l147.84,148.16l59.97-59.8l1.63,0.85c11.75,6.15,25.56,9.41,39.94,9.41h0.04
		c21.2,0,41.02-7.16,53.02-19.16c42.99-43,26.35-89.96,20.22-103.33l-0.72-1.58l11.63-11.6V65.28L268.11,0H185.88z M147.85,323.6
		L9.95,185.41l31.18-31.1l137.9,138.2L147.85,323.6z M297.44,259.87L297.44,259.87c-10.13,10.12-28.59,17.2-48.52,17.2
		c-10.84,0-22.12-2.1-32.72-6.94l-3.28-1.5l103.8-103.53l1.41,3.51C324.21,183.75,334.37,222.94,297.44,259.87 M326.51,145.41
		l-0.74,0.73L206.67,264.86l-1.72-1.23c-25.42-18.22-33.23-52.57-21.99-96.71c0.23-0.91,0.1-1.86-0.38-2.67
		c-0.48-0.81-1.25-1.38-2.16-1.61c-0.91-0.24-1.84-0.12-2.63,0.35c-0.82,0.48-1.41,1.26-1.65,2.19
		c-15.05,59.12,4.29,88.65,23.16,103.02l2.28,1.74l-17.6,17.55l-1.76-1.77L46.12,149.33L155.16,40.57l1.2,0.14
		c28.1,3.21,54.88,12.79,79.58,28.47l1.41,0.9l-0.29,1.65c-0.26,1.46-0.37,2.58-0.37,3.65c0,11.68,9.51,21.19,21.19,21.19
		c11.68,0,21.19-9.5,21.19-21.19c0-11.68-9.51-21.19-21.19-21.19c-6.22,0-12.13,2.82-16.21,7.74l-1.4,1.68l-1.85-1.16
		c-22.6-14.13-46.83-23.37-72.02-27.48l-4.82-0.79l27.2-27.14h76.42l61.31,61.17V145.41z M255.26,75.26
		c-0.13-0.93-0.62-1.75-1.37-2.32c-1.21-0.9-2.46-1.77-3.68-2.6c-0.62-0.42-1.23-0.85-1.85-1.28l-2.47-1.73l2.17-2.1
		c2.66-2.59,6.15-4.01,9.83-4.01c7.8,0,14.15,6.35,14.15,14.15c0,7.8-6.35,14.15-14.15,14.15c-5.71,0-10.83-3.41-13.05-8.7
		l-3.43-8.19l7.2,5.19c0.12,0.09,0.24,0.17,0.36,0.25c0.24,0.16,0.47,0.32,0.71,0.5c0.75,0.56,1.68,0.8,2.61,0.67
		c0.93-0.13,1.74-0.62,2.3-1.37C255.15,77.11,255.39,76.19,255.26,75.26"/>
</g>
</svg>
