<?xml version="1.0" encoding="utf-8"?>
<!-- Generator: Adobe Illustrator 20.1.0, SVG Export Plug-In . SVG Version: 6.00 Build 0)  -->
<svg version="1.1" id="Слой_1" xmlns="http://www.w3.org/2000/svg" xmlns:xlink="http://www.w3.org/1999/xlink" x="0px" y="0px"
	 viewBox="0 0 542.85 509.73" style="enable-background:new 0 0 542.85 509.73;" xml:space="preserve">
<style type="text/css">
	.st0{clip-path:url(#SVGID_2_);}
</style>
<g>
	<defs>
		<rect id="SVGID_1_" width="542.85" height="509.73"/>
	</defs>
	<clipPath id="SVGID_2_">
		<use xlink:href="#SVGID_1_"  style="overflow:visible;"/>
	</clipPath>
	<path class="st0" d="M523.35,351.73c26.11-35.97,25.98-92.21-0.29-128.04c-9.18-12.52-19.13-19.99-31.3-23.52
		c-3.08-0.89-5.46-3.61-6.67-5.85c-3.43-6.39-8.3-11.3-14.9-15.03c-3.06-1.73-5.61-5.41-6.07-8.76
		c-5.15-37.78-19.47-70.75-42.55-98.01c-47.92-56.58-108-80.24-178.59-70.34c-41.02,5.76-80.04,25.79-109.87,56.4
		c-29.67,30.47-49.01,70.08-54.45,111.54c-0.46,3.52-3.07,7.39-6.2,9.21c-6.39,3.71-11.2,8.53-14.7,14.73
		c-1.56,2.76-4.57,5.24-7.68,6.32c-9.14,3.15-16.85,8.13-23.58,15.22c-15.53,16.36-25.14,40.64-26.38,66.6
		c-1.24,26.01,6.03,51.69,19.95,70.46c8.29,11.18,17.85,18.57,29.22,22.59c3.44,1.22,6.8,3.94,8.75,7.11
		c6.64,10.78,14.39,16.03,24.39,16.52c6.92,0.33,13.79-2.36,19.31-7.61c6.25-5.95,9.84-14.27,9.85-22.84
		c0.02-19.19,0.01-38.39,0-57.58c-0.02-33.16-0.04-67.45,0.11-101.18c0.06-13.2-5.04-22.59-16.03-29.53
		c-3.12-1.97-5.2-6.59-4.54-10.09c0.36-1.95,0.72-3.92,1.07-5.88c1.53-8.48,3.1-17.25,5.71-25.72
		c12.48-40.62,38.91-75.49,74.42-98.17c36.82-23.52,80.08-32.66,125.12-26.42c40.39,5.6,76.41,23.45,104.18,51.63
		c27.64,28.05,44.99,64.18,50.19,104.48c0.42,3.25,0.24,7.38-4.91,10.5c-10.87,6.58-15.91,15.76-15.85,28.88
		c0.26,60.22,0.25,109.82-0.03,156.1c-0.09,13.96,5.23,23.7,16.72,30.65c2.91,1.76,5.06,5.87,4.81,9.18
		c-2.99,38.92-24.7,63.13-61.12,68.16c-13.11,1.81-26.5,1.79-39.46,1.77c-4.4-0.01-8.95-0.01-13.39,0.05c-0.03,0-0.07,0-0.1,0
		c-4.91,0-8.43-5.09-9.09-6.12c-7.16-11.12-16.03-16.22-27.84-15.92c-5.6,0.12-11.26,0.09-16.73,0.06
		c-2.56-0.01-5.11-0.02-7.67-0.03h0c-2.97-0.01-5.93-0.01-8.89-0.03c-6.27-0.03-12.75-0.07-19.09,0.07
		c-7.05,0.15-14.24,3.52-19.71,9.26c-5.43,5.69-8.44,12.93-8.26,19.86c0.18,6.71,3.48,13.55,9.07,18.76
		c5.67,5.3,13.13,8.38,20.47,8.45c8.28,0.09,16.72,0.06,24.88,0.04c3.82-0.01,7.69-0.02,11.59-0.02c4.75,0,9.54,0.02,14.28,0.07
		c12.31,0.16,21.43-5.2,27.85-16.33c3.05-5.27,7.11-5.93,10.72-5.93c2.38,0.02,4.77,0.05,7.15,0.07c9.29,0.11,18.89,0.21,28.25-0.15
		c28.13-1.08,49.89-10.33,66.52-28.29c12.73-13.75,20.26-31.32,23.02-53.72c0.37-2.97,2.27-7.06,5.58-9.02
		c6.43-3.8,11.17-8.65,14.49-14.84c0.6-1.11,2.84-4.82,6.67-5.91C504.02,372.13,514.06,364.53,523.35,351.73 M54.83,369.22
		l-8.14-6.56c-1.69-1.36-3.37-2.62-4.99-3.84c-3.55-2.66-6.9-5.17-9.8-8.34c-10.27-11.23-16.21-25.49-18.67-44.87
		c-3.15-24.84-0.76-44.67,7.54-62.39c3.43-7.32,8.59-13.62,13.58-19.71c0.61-0.74,1.22-1.48,1.82-2.22
		c2.08-2.56,4.85-4.14,7.52-5.66c1.12-0.64,2.28-1.3,3.38-2.03l7.76-5.13V369.22z M99.29,204.37c0.07,57.13,0.07,113.43-0.01,167.33
		c-0.01,4.71-1.37,8.46-4.07,11.13c-2.77,2.75-6.74,4.14-11.82,4.14h-0.16c-10.14-0.06-15.74-5.54-15.78-15.43
		c-0.08-20.33-0.07-41-0.06-60.99c0-5.94,0.01-11.88,0.01-17.82l-0.02-4.87l-0.01-23.11c-0.01-19.32-0.02-39.29,0.03-58.94
		c0.01-4.12,0.47-9.29,3.99-12.76c3.49-3.44,8.58-3.81,12.64-3.77C94.16,189.41,99.28,194.49,99.29,204.37 M304.82,497.48
		c-3.74,0.05-7.51,0.06-11.25,0.06c-2.83,0-5.64-0.01-8.42-0.02c-5.5-0.01-11-0.02-16.5,0c-6.37,0.02-12.96,0.04-19.46-0.04
		c-10.21-0.11-15.91-5.69-16.06-15.7c-0.08-5.17,1.26-9.21,3.99-12c2.69-2.76,6.61-4.19,11.62-4.23
		c18.07-0.17,36.95-0.17,56.13-0.02c10.32,0.09,15.77,5.61,15.76,15.99C320.62,491.69,315,497.36,304.82,497.48 M475.33,370.65
		c-0.12,13.46-8.66,16.32-15.88,16.32c-0.06,0-0.12,0-0.18,0c-7.21-0.05-15.82-2.95-15.84-16.52c-0.04-19.94-0.03-39.87-0.02-59.81
		l0-22.78l0-22.6c-0.01-19.81-0.01-39.63,0.02-59.45c0.01-4.09,0.47-9.23,4-12.72c3.51-3.47,8.59-3.85,12.64-3.81
		c13.52,0.16,15.26,9.01,15.27,16.7c0.03,32,0.03,64,0.02,96.01l0,33c0,3.39,0.01,6.78,0.01,10.17
		C475.39,353.51,475.41,362.14,475.33,370.65 M488.12,211.02l6.9,2.83c9.42,3.86,16.67,10.49,22.84,20.88
		c8.02,13.52,12.2,29.51,12.75,48.88c0.62,21.63-2.84,38.86-10.91,54.25c-6.24,11.9-14.05,19.59-24.59,24.18l-7,3.05V211.02z"/>
</g>
</svg>
