<?xml version="1.0" encoding="utf-8"?>
<!-- Generator: Adobe Illustrator 20.1.0, SVG Export Plug-In . SVG Version: 6.00 Build 0)  -->
<svg version="1.1" id="Слой_1" xmlns="http://www.w3.org/2000/svg" xmlns:xlink="http://www.w3.org/1999/xlink" x="0px" y="0px"
	 viewBox="0 0 370.73 370.73" style="enable-background:new 0 0 370.73 370.73;" xml:space="preserve">
<style type="text/css">
	.st0{clip-path:url(#SVGID_2_);}
</style>
<g>
	<defs>
		<rect id="SVGID_1_" width="370.73" height="370.73"/>
	</defs>
	<clipPath id="SVGID_2_">
		<use xlink:href="#SVGID_1_"  style="overflow:visible;"/>
	</clipPath>
	<path class="st0" d="M363.21,370.73h7.52V91.43c0-2.39-1.37-3.76-3.76-3.76h-21.29V60.12c0-2.39-1.37-3.76-3.76-3.76H170.34V3.76
		c0-2.39-1.37-3.76-3.76-3.76H3.76C1.37,0,0,1.37,0,3.76v366.97h7.52V7.52h155.29v80.15H50.1v7.52h313.11V370.73z M338.16,87.67
		H170.34V63.88h167.82V87.67z"/>
	<path class="st0" d="M339.42,266.78c0-12.43-10.11-22.55-22.55-22.55c-10.18,0-19.03,6.83-22.02,16.99l-0.53,1.79h-36.31v-99.04
		l1.93-0.45c9.77-2.3,16.86-11.55,16.86-21.99c0-12.43-10.11-22.55-22.55-22.55s-22.55,10.12-22.55,22.55
		c0,10.18,6.83,19.03,16.99,22.02l1.79,0.53v98.93h-61.36v-48.94l1.93-0.45c9.77-2.3,16.86-11.55,16.86-21.99
		c0-12.43-10.12-22.55-22.55-22.55c-12.43,0-22.55,10.12-22.55,22.55c0,10.18,6.83,19.03,16.99,22.02l1.79,0.53v98.93h-73.88V226.6
		l1.93-0.45c9.77-2.3,16.86-11.55,16.86-21.99c0-12.43-10.12-22.55-22.55-22.55c-12.43,0-22.55,10.12-22.55,22.55
		c0,10.18,6.83,19.03,16.99,22.02l1.79,0.53v86.41H76.3l-0.45-1.93c-2.3-9.77-11.55-16.86-21.99-16.86
		c-12.43,0-22.55,10.12-22.55,22.55c0,12.43,10.12,22.55,22.55,22.55c10.18,0,19.03-6.83,22.02-16.99l0.53-1.79H181.6v50.1h7.52
		v-100.2h105.3l0.45,1.93c2.3,9.77,11.55,16.86,21.99,16.86C329.31,289.32,339.42,279.21,339.42,266.78 M53.86,331.9
		c-8.28,0-15.02-6.74-15.02-15.02s6.74-15.02,15.02-15.02s15.02,6.74,15.02,15.02S62.14,331.9,53.86,331.9 M88.93,204.15
		c0-8.28,6.74-15.02,15.02-15.02c8.28,0,15.02,6.74,15.02,15.02c0,8.28-6.74,15.02-15.02,15.02
		C95.67,219.18,88.93,212.44,88.93,204.15 M185.37,206.65c-8.28,0-15.02-6.74-15.02-15.02s6.74-15.02,15.02-15.02
		s15.02,6.74,15.02,15.02S193.65,206.65,185.37,206.65 M239.23,141.53c0-8.28,6.74-15.02,15.02-15.02s15.02,6.74,15.02,15.02
		c0,8.29-6.74,15.02-15.02,15.02S239.23,149.82,239.23,141.53 M316.87,281.8c-8.28,0-15.02-6.74-15.02-15.02
		c0-8.28,6.74-15.02,15.02-15.02c8.28,0,15.02,6.74,15.02,15.02C331.9,275.06,325.16,281.8,316.87,281.8"/>
</g>
</svg>
