<?xml version="1.0" encoding="utf-8"?>
<!-- Generator: Adobe Illustrator 20.1.0, SVG Export Plug-In . SVG Version: 6.00 Build 0)  -->
<svg version="1.1" id="Слой_1" xmlns="http://www.w3.org/2000/svg" xmlns:xlink="http://www.w3.org/1999/xlink" x="0px" y="0px"
	 viewBox="0 0 405 391.84" style="enable-background:new 0 0 405 391.84;" xml:space="preserve">
<style type="text/css">
	.st0{clip-path:url(#SVGID_2_);}
</style>
<rect x="157.94" y="26.32" width="89.13" height="10.16"/>
<rect x="157.94" y="52.64" width="89.13" height="10.16"/>
<rect x="157.94" y="78.97" width="89.13" height="10.16"/>
<rect x="157.94" y="105.29" width="89.13" height="10.16"/>
<g>
	<defs>
		<rect id="SVGID_1_" width="405" height="391.84"/>
	</defs>
	<clipPath id="SVGID_2_">
		<use xlink:href="#SVGID_1_"  style="overflow:visible;"/>
	</clipPath>
	<path class="st0" d="M366.8,303.22l-1.29-0.18v-28.15c0-2.8-2.28-5.08-5.08-5.08H207.58v-29.32h40.98c1.94,0,3.68-1.08,4.55-2.81
		l26.32-52.64c0.79-1.59,0.71-3.44-0.22-4.94c-0.94-1.51-2.55-2.41-4.33-2.41h-67.3v-35.9h60.73c2.8,0,5.08-2.28,5.08-5.08V62.81
		h22.74v21.24c0,2.8,2.28,5.08,5.08,5.08h78.97c2.8,0,5.08-2.28,5.08-5.08V31.4c0-2.8-2.28-5.08-5.08-5.08h-78.97
		c-2.8,0-5.08,2.28-5.08,5.08v21.24h-22.74V5.08c0-2.8-2.28-5.08-5.08-5.08H136.69c-2.8,0-5.08,2.28-5.08,5.08v40.38l-16.59-16.59
		l-7.18,7.18l16.59,16.59h-65.2v10.16h65.2L107.84,79.4l7.18,7.18l16.59-16.59v66.7c0,2.8,2.28,5.08,5.08,5.08h60.73v35.9h-40.98
		c-1.94,0-3.68,1.08-4.55,2.81l-26.32,52.64c-0.79,1.59-0.71,3.44,0.22,4.94c0.94,1.51,2.55,2.41,4.33,2.41h67.31v29.32H44.56
		c-2.8,0-5.08,2.28-5.08,5.08v28.15l-1.29,0.18C16.42,306.36,0,325.3,0,347.27c0,24.57,19.99,44.56,44.57,44.56
		s44.56-19.99,44.56-44.56c0-21.98-16.42-40.92-38.2-44.05l-1.29-0.18v-23.07h95.13v23.07l-1.29,0.18
		c-21.78,3.14-38.2,22.08-38.2,44.05c0,24.57,19.99,44.56,44.57,44.56s44.56-19.99,44.56-44.56c0-21.98-16.42-40.92-38.2-44.05
		l-1.29-0.18v-23.07h95.13v23.07l-1.29,0.18c-21.78,3.14-38.2,22.08-38.2,44.05c0,24.57,19.99,44.56,44.56,44.56
		s44.56-19.99,44.56-44.56c0-21.98-16.42-40.92-38.2-44.05l-1.29-0.18v-23.07h95.13v23.07l-1.29,0.18
		c-21.78,3.14-38.2,22.08-38.2,44.05c0,24.57,19.99,44.56,44.56,44.56c24.57,0,44.56-19.99,44.56-44.56
		C405,325.3,388.58,306.36,366.8,303.22 M306.29,36.48h68.81v42.48h-68.81V36.48z M78.97,347.27c0,18.97-15.43,34.4-34.4,34.4
		s-34.4-15.43-34.4-34.4c0-18.97,15.43-34.4,34.4-34.4S78.97,328.3,78.97,347.27 M184.26,347.27c0,18.97-15.43,34.4-34.4,34.4
		s-34.4-15.43-34.4-34.4c0-18.97,15.43-34.4,34.4-34.4S184.26,328.3,184.26,347.27 M141.77,10.16h121.45v121.45H141.77V10.16z
		 M138.33,230.32l21.24-42.48h107.09l-21.24,42.48H138.33z M289.55,347.27c0,18.97-15.43,34.4-34.4,34.4s-34.4-15.43-34.4-34.4
		c0-18.97,15.43-34.4,34.4-34.4S289.55,328.3,289.55,347.27 M360.44,381.68c-18.97,0-34.4-15.43-34.4-34.4
		c0-18.97,15.43-34.4,34.4-34.4c18.97,0,34.4,15.43,34.4,34.4C394.84,366.24,379.41,381.68,360.44,381.68"/>
	<rect x="335.61" y="105.29" class="st0" width="10.16" height="10.16"/>
	<rect x="335.61" y="131.61" class="st0" width="10.16" height="10.16"/>
	<rect x="335.61" y="157.94" class="st0" width="10.16" height="10.16"/>
	<rect x="335.61" y="184.26" class="st0" width="10.16" height="10.16"/>
	<rect x="335.61" y="210.58" class="st0" width="10.16" height="10.16"/>
	<rect x="309.29" y="210.58" class="st0" width="10.16" height="10.16"/>
	<rect x="282.97" y="210.58" class="st0" width="10.16" height="10.16"/>
	<rect x="32.9" y="52.64" class="st0" width="10.16" height="10.16"/>
	<rect x="6.58" y="52.64" class="st0" width="10.16" height="10.16"/>
	<rect x="171.1" y="204" class="st0" width="62.81" height="10.16"/>
</g>
</svg>
