<?xml version="1.0" encoding="utf-8"?>
<!-- Generator: Adobe Illustrator 20.1.0, SVG Export Plug-In . SVG Version: 6.00 Build 0)  -->
<svg version="1.1" id="Слой_1" xmlns="http://www.w3.org/2000/svg" xmlns:xlink="http://www.w3.org/1999/xlink" x="0px" y="0px"
	 viewBox="0 0 655.56 655.61" style="enable-background:new 0 0 655.56 655.61;" xml:space="preserve">
<style type="text/css">
	.st0{clip-path:url(#SVGID_2_);}
</style>
<g>
	<defs>
		<rect id="SVGID_1_" width="655.56" height="655.61"/>
	</defs>
	<clipPath id="SVGID_2_">
		<use xlink:href="#SVGID_1_"  style="overflow:visible;"/>
	</clipPath>
	<path class="st0" d="M604.06,0.03c-183.35-0.04-369.27-0.04-552.6,0C21.67,0.04,0.05,21.72,0.04,51.6
		c-0.05,153.65-0.05,290.58,0,418.61c0,14.81,5.22,28.14,14.69,37.53c9.44,9.36,22.8,14.52,37.63,14.52
		c23.69-0.02,47.35-0.03,71-0.03l152.76,0.01l-18.91,75.86l-2.99,0.91c-0.22,0.07-0.41,0.13-0.56,0.19
		c-0.68,0.24-1.62,0.58-2.85,0.59c-12.2,0.03-24.41,0.04-36.61,0.06c-12.56,0.02-25.12,0.04-37.67,0.06
		c-5.7,0.01-7.86,1.1-8.67,2.01c-0.82,0.93-1.67,3.25-1,9.06c2.91,25.31,24.05,44.44,49.17,44.5c74.55,0.18,149.75,0.18,223.51,0
		c25.07-0.06,46.21-19.21,49.16-44.54c0.67-5.73-0.17-8.04-1-8.97c-0.82-0.93-3-2.04-8.73-2.06c-6.13-0.03-12.26-0.02-18.39-0.02
		l-61.78,0.01l-19.35-77.65l224.43-0.01c29.91,0,51.63-21.6,51.64-51.37c0.05-134.96,0.05-276.04,0-419.31
		C655.52,21.7,633.87,0.04,604.06,0.03 M11.24,296.24c0.01-80.94,0.01-161.87,0.03-242.81c0-26.4,15.73-42.17,42.08-42.17
		c183.23-0.01,366.47-0.01,549.71,0.01c25.03,0,41.21,16.07,41.22,40.92c0.05,95.82,0.05,192.75,0.05,286.48v105.45H11.24
		L11.24,296.24z M477.6,611.47l-2.84,7.46c-6.31,16.58-19.46,25.35-38.01,25.37c-35.85,0.04-71.85,0.03-108.65,0.01l-41.17-0.01
		l-20.46,0.02c-6.38,0.01-12.85,0.02-19.36,0.02c-11.94,0-21.56-0.04-30.28-0.11c-15.43-0.13-27.05-7.21-34.54-21.03
		c-0.63-1.16-0.94-2.28-1.22-3.28c-0.11-0.4-0.23-0.82-0.37-1.27l-2.31-7.18H477.6z M387.13,599.46H268.47l19.18-76.9h80.22
		L387.13,599.46z M635.43,496.9c-7.74,9.23-19.53,14.11-34.11,14.11l-273.06,0.01l-273.06,0c-14.96,0-26.89-4.59-34.5-13.29
		c-7.76-8.86-10.78-21.69-8.74-37.1l0.64-4.78h630l0.81,4.54C645.99,474.97,643.23,487.6,635.43,496.9"/>
	<path class="st0" d="M429.4,224.06c0.01-2.45-3.89-6.58-9.86-12.6c-0.18-0.18-0.36-0.36-0.53-0.53l-0.11-0.1
		c-2.28-2.23-6.09-5.97-2.99-12.59c1.97-4.2,5.21-8.88,12.98-7.78c1.43,0.2,3.03,0.14,4.72,0.08c0.77-0.03,1.54-0.06,2.3-0.07
		c7.93-0.09,9.99-2.09,10.06-9.75c0.06-7.21,0.04-14.48,0.03-21.52l0-1.21c-0.01-2.82-0.01-5.65-0.01-8.47
		c0-8.14-0.14-14.03-1.91-15.8c-1.9-1.89-9.04-1.86-15.35-1.84c-4.82-0.01-9.76-0.59-12.73-7.56c-3.04-7.14,0.97-10.98,3.63-13.53
		l0.26-0.25c2.15-2.07,4.03-3.95,5.75-5.76c4.84-5.11,4.82-8.04-0.11-13.06c-5.02-5.11-10.18-10.26-15.18-15.23
		c-2.31-2.3-4.59-4.57-6.86-6.84c-5.47-5.47-10.19-10.19-12.77-10.19c-2.62,0.01-7.61,5-12.9,10.3c-2.14,2.14-6.13,6.13-13.26,3.1
		c-5.82-2.47-8.12-6.32-7.45-12.48c0.21-1.97,0.15-4.05,0.08-6.24c-0.02-0.76-0.05-1.52-0.06-2.27c-0.11-6.52-2.42-8.85-8.83-8.91
		c-6.47-0.06-12.97-0.04-19.27-0.02c-4.21,0.01-8.41,0.03-12.63,0.02c-8.22-0.02-14.21,0.1-16.03,1.93
		c-1.95,1.96-1.89,9.3-1.83,15.77c0.03,3.14,0.08,8.98-7.35,12.17c-7.86,3.36-11.98-1.41-13.96-3.71c-1.35-1.56-2.88-3.01-4.49-4.54
		l-1.12-1.07c-5.34-5.11-8.24-5.07-13.54,0.18c-5.72,5.67-11.65,11.63-16.87,16.89l-5.66,5.69c-6.04,6.07-9.37,9.41-9.36,12.08
		c0.02,2.68,3.39,6.05,9.51,12.16c2.74,2.74,6.88,6.87,3.68,14.36c-3.13,7.32-8.76,7.12-12.5,6.99c-2.54-0.09-5.08-0.08-8.13-0.03
		c-6.8,0.1-9.11,2.45-9.15,9.29c-0.03,6.4-0.02,12.81-0.01,19.02c0.01,4.3,0.02,8.6,0.02,12.89c-0.01,6.38-0.02,13.62,1.93,15.56
		c1.66,1.65,6.55,1.92,15.57,1.87h0.06c4.67,0,9.44,0.58,12.24,7.21c3.05,7.24-0.29,11.3-3.54,14.03c-1.79,1.5-3.43,3.24-5.17,5.09
		l-0.89,0.95c-4.58,4.84-4.59,7.89-0.04,12.55c5.61,5.75,11.42,11.51,17.04,17.09l0.12,0.12c1.79,1.78,3.58,3.55,5.37,5.33
		c5.17,5.15,10.06,10.01,12.67,10.02c2.43,0,6.53-3.94,12.5-9.94c2.16-2.17,4.79-4.48,8.71-4.48c1.59,0,3.25,0.37,5.08,1.13
		c6.95,2.9,7.57,7.96,7.25,12.52c-0.21,3.07-0.13,6.28-0.01,9.28c0.21,5.36,2.61,7.82,7.8,7.96c4.88,0.14,9.87,0.11,14.7,0.07
		c1.7-0.01,3.42-0.02,5.11-0.02l1.59-0.01l1.6,0c3.17,0,6.33,0.01,9.51,0c7.8-0.01,14.53-0.02,16.38-1.84
		c1.86-1.83,1.85-8.82,1.84-16.23c-0.01-5.81,2.2-9.24,7.63-11.85c7.03-3.37,11.04,0.93,13.44,3.5c1.79,1.92,3.77,3.9,6.2,6.21
		c4.91,4.65,7.85,4.67,12.56,0.09c5.3-5.16,10.61-10.5,15.74-15.67l0.16-0.16c2.21-2.23,4.43-4.46,6.65-6.68
		C425.42,230.66,429.38,226.52,429.4,224.06 M389.99,244.37l-5.12-4.92c-1.86-1.78-4.17-3.99-6.37-6.16
		c-3.08-3.04-5.89-3.45-10-1.46c-6.76,3.28-12.33,5.67-17.54,7.54c-7.34,2.63-8.02,3.54-8.07,10.77c-0.02,2.28-0.01,4.56-0.01,6.95
		l0,7.63h-30.22v-4c0-1.08-0.01-2.17-0.02-3.25l0-0.3c-0.02-2.63-0.05-5.35,0.05-8.09c0.18-5.13-1.74-7.76-6.84-9.4
		c-5.32-1.71-10.93-3.98-17.15-6.96c-6.86-3.28-8.09-3.08-13.17,2.15c-1.39,1.43-2.61,3.23-3.91,5.14c-0.68,1-1.37,2.01-2.11,3.02
		l-2.82,3.86l-24.13-25.27l3.63-2.7c0.89-0.66,1.83-1.32,2.8-2.01c2.16-1.53,4.38-3.1,6.35-4.85c3.41-3.04,3.83-6.18,1.44-10.82
		c-2.68-5.2-5.13-10.93-7.29-17.02c-2.58-7.27-3.49-7.94-10.81-8c-2.3-0.02-4.6-0.01-7.05-0.01l-7.63,0.01v-30.22h4
		c1.25,0,2.48-0.01,3.7-0.02c2.62-0.02,5.33-0.05,8.11,0.05c5.13,0.16,7.75-1.75,9.38-6.84c1.68-5.26,3.91-10.71,7.02-17.15
		c3.26-6.74,3.03-8.09-2.19-13.16c-1.43-1.39-3.23-2.61-5.13-3.91c-0.98-0.67-1.96-1.34-2.93-2.05l-3.88-2.85l25.51-23.96l2.68,3.6
		c0.62,0.83,1.26,1.74,1.93,2.7c1.53,2.17,3.23,4.6,5.12,6.68c2.68,2.96,5.62,3.36,9.8,1.33c4.71-2.28,10.96-5.21,17.53-7.56
		c7.21-2.58,7.96-3.6,8.01-10.84c0.02-2.29,0.01-4.58,0.01-6.98l0-7.57h30.22v4c0,1.1,0.01,2.2,0.02,3.29l0,0.29
		c0.02,2.64,0.05,5.36-0.05,8.11c-0.17,5.12,1.74,7.74,6.84,9.35c5.23,1.65,10.85,3.95,17.17,7.01c6.58,3.19,8.01,2.99,12.73-1.71
		c1.65-1.64,3.21-3.47,4.85-5.4l0.08-0.1c0.77-0.9,1.55-1.82,2.37-2.74l2.88-3.27l23.32,24.39l-3.64,2.7
		c-0.94,0.7-1.95,1.4-2.98,2.13c-2.28,1.6-4.63,3.25-6.69,5.11c-2.97,2.69-3.37,5.61-1.34,9.76c3.16,6.45,5.63,12.19,7.55,17.54
		c2.6,7.24,3.62,7.99,10.85,8.04c2.24,0.02,4.48,0.01,6.82,0.01l7.73-0.01v30.22l-7.4-0.01c-2.46,0-4.92-0.01-7.38,0.01
		c-6.97,0.06-8.04,0.84-10.42,7.57c-1.96,5.53-4.26,11.03-6.85,16.35c-3.3,6.8-3.1,8.03,2.15,13.2c1.43,1.41,3.22,2.66,5.11,3.99
		c0.98,0.68,1.97,1.38,2.96,2.12l3.8,2.85L389.99,244.37z"/>
	<path class="st0" d="M240.74,324.39l-9.77-9.7c-3.13,3.11-6.24,6.2-9.34,9.27l-0.61,0.6c-10.99,10.9-21.35,21.17-31.74,31.82
		c-1.98,2.03-4.04,5.32,0.95,10.47c4.58,4.73,9.35,9.47,13.95,14.05c3.12,3.1,6.65,6.61,10,10.01c4.42,4.48,8.86,9.09,13.15,13.54
		l3.21,3.33l10.89-10.78l-37.52-36.72L240.74,324.39z"/>
	<path class="st0" d="M466.48,365.5c2.75-2.81,2.75-6.04,0-8.87c-10.61-10.92-21.56-21.83-32.15-32.38
		c-3.14-3.12-6.27-6.24-9.4-9.37l-10.39,10.16l37.63,37.32l-36.9,34.5l9.33,10.41c3.21-3.18,6.42-6.35,9.61-9.51
		C444.87,387.22,455.89,376.33,466.48,365.5"/>
	<polygon class="st0" points="302.59,406.54 364.44,324.17 353.04,315.64 291.21,398.08 	"/>
	<rect x="43.5" y="87.61" class="st0" width="13.26" height="13.63"/>
	<rect x="87.73" y="87.91" class="st0" width="13.41" height="13.35"/>
	<rect x="598.87" y="354.29" class="st0" width="13.38" height="13.38"/>
	<rect x="554.25" y="354.48" class="st0" width="13.51" height="13.39"/>
	<rect x="510.03" y="354.44" class="st0" width="13.34" height="13.45"/>
	<rect x="132.14" y="354.51" class="st0" width="13.62" height="13.33"/>
	<rect x="87.51" y="354.56" class="st0" width="13.6" height="13.22"/>
	<rect x="43.38" y="354.36" class="st0" width="13.51" height="13.39"/>
	<rect x="598.73" y="310.09" class="st0" width="13.64" height="13.28"/>
	<rect x="43.26" y="309.89" class="st0" width="13.4" height="13.43"/>
	<rect x="598.67" y="265.49" class="st0" width="13.39" height="13.37"/>
	<rect x="43.32" y="265.43" class="st0" width="13.35" height="13.49"/>
	<rect x="132.07" y="87.78" class="st0" width="13.62" height="13.3"/>
	<rect x="176.59" y="87.89" class="st0" width="13.42" height="13.4"/>
	<rect x="598.93" y="220.92" class="st0" width="13.27" height="13.63"/>
	<rect x="43.08" y="221.23" class="st0" width="13.6" height="13.25"/>
	<rect x="598.81" y="176.61" class="st0" width="13.27" height="13.61"/>
	<rect x="43.41" y="176.67" class="st0" width="13.65" height="13.26"/>
	<rect x="598.86" y="132.22" class="st0" width="13.39" height="13.51"/>
	<rect x="43.38" y="132.17" class="st0" width="13.5" height="13.38"/>
	<rect x="465.42" y="87.71" class="st0" width="13.38" height="13.45"/>
	<rect x="598.81" y="87.74" class="st0" width="13.5" height="13.36"/>
	<rect x="554.34" y="87.93" class="st0" width="13.33" height="13.37"/>
	<rect x="509.91" y="87.69" class="st0" width="13.34" height="13.47"/>
	<path class="st0" d="M327.8,109.6c-13.75,0-26.67,5.36-36.42,15.11c-9.76,9.75-15.13,22.67-15.13,36.4
		c0,13.76,5.38,26.71,15.16,36.48c9.73,9.73,22.63,15.08,36.3,15.08c28.44-0.03,51.57-23.14,51.62-51.52
		c0.02-13.71-5.33-26.63-15.07-36.38C354.49,114.99,341.55,109.61,327.8,109.6 M353.87,187.73c-7.02,6.91-16.3,10.71-26.12,10.71
		l-0.37,0c-9.93-0.1-19.24-4.09-26.22-11.25c-7.04-7.22-10.83-16.75-10.68-26.83c0.32-20.14,17.09-36.52,37.4-36.52l0.29,0
		c20.14,0.16,37.04,17.26,36.9,37.34C365.01,171.26,361.03,180.69,353.87,187.73"/>
</g>
</svg>
