<?xml version="1.0" encoding="utf-8"?>
<!-- Generator: Adobe Illustrator 20.1.0, SVG Export Plug-In . SVG Version: 6.00 Build 0)  -->
<svg version="1.1" id="Слой_1" xmlns="http://www.w3.org/2000/svg" xmlns:xlink="http://www.w3.org/1999/xlink" x="0px" y="0px"
	 viewBox="0 0 350.09 438.84" style="enable-background:new 0 0 350.09 438.84;" xml:space="preserve">
<style type="text/css">
	.st0{clip-path:url(#SVGID_2_);}
</style>
<g>
	<defs>
		<rect id="SVGID_1_" width="350.09" height="438.84"/>
	</defs>
	<clipPath id="SVGID_2_">
		<use xlink:href="#SVGID_1_"  style="overflow:visible;"/>
	</clipPath>
	<path class="st0" d="M36.98,65.49c0,14.07,11.17,20.12,20.9,23.81l1.29,0.49v28.24l-2.62-0.86c-5.8-1.9-9.7-5.95-9.7-10.07
		c0-2.72-2.21-4.93-4.94-4.93c-2.72,0-4.93,2.21-4.93,4.93c0,9.81,8.45,18.24,20.56,20.51l1.63,0.3v2.76c0,2.72,2.21,4.93,4.94,4.93
		c2.72,0,4.93-2.21,4.93-4.93v-2.76l1.63-0.3c12.1-2.26,20.56-10.7,20.56-20.51c0-14.08-11.17-20.12-20.9-23.81l-1.29-0.49V54.56
		l2.62,0.86c5.8,1.9,9.7,5.95,9.7,10.07c0,2.72,2.21,4.93,4.93,4.93s4.93-2.21,4.93-4.93c0-9.81-8.45-18.24-20.56-20.51l-1.63-0.3
		v-2.76c0-2.72-2.21-4.93-4.93-4.93c-2.72,0-4.94,2.21-4.94,4.93v2.76l-1.63,0.3C45.43,47.25,36.98,55.68,36.98,65.49 M69.04,93.33
		l2.88,1.41c6.88,3.37,9.44,6.72,9.44,12.35c0,4.12-3.9,8.17-9.7,10.07l-2.62,0.86V93.33z M56.55,55.42l2.62-0.86v24.69l-2.88-1.41
		c-6.88-3.37-9.44-6.72-9.44-12.35C46.85,61.37,50.75,57.32,56.55,55.42"/>
	<path class="st0" d="M115.88,61.64h59.17c2.72,0,4.93-2.21,4.93-4.93c0-2.72-2.21-4.93-4.93-4.93h-59.17
		c-2.72,0-4.93,2.21-4.93,4.93C110.94,59.43,113.15,61.64,115.88,61.64"/>
	<path class="st0" d="M123.27,110.94h-7.4c-2.72,0-4.93,2.21-4.93,4.94c0,2.72,2.21,4.93,4.93,4.93h7.4c2.72,0,4.93-2.21,4.93-4.93
		C128.21,113.15,125.99,110.94,123.27,110.94"/>
	<path class="st0" d="M253.94,167.65c0-2.72-2.21-4.93-4.94-4.93H41.91c-2.72,0-4.93,2.21-4.93,4.93c0,2.72,2.21,4.93,4.93,4.93H249
		C251.72,172.58,253.94,170.37,253.94,167.65"/>
	<path class="st0" d="M108.48,207.09H86.29c-2.72,0-4.93,2.21-4.93,4.93c0,2.72,2.21,4.93,4.93,4.93h22.19
		c2.72,0,4.93-2.21,4.93-4.93C113.41,209.3,111.2,207.09,108.48,207.09"/>
	<path class="st0" d="M61.64,212.02c0-2.72-2.21-4.93-4.94-4.93H41.91c-2.72,0-4.93,2.21-4.93,4.93c0,2.72,2.21,4.94,4.93,4.94
		h14.79C59.43,216.96,61.64,214.74,61.64,212.02"/>
	<path class="st0" d="M108.48,236.67H86.29c-2.72,0-4.93,2.21-4.93,4.94c0,2.72,2.21,4.93,4.93,4.93h22.19
		c2.72,0,4.93-2.21,4.93-4.93C113.41,238.89,111.2,236.67,108.48,236.67"/>
	<path class="st0" d="M61.64,241.61c0-2.72-2.21-4.93-4.94-4.93H41.91c-2.72,0-4.93,2.21-4.93,4.93c0,2.72,2.21,4.93,4.93,4.93
		h14.79C59.43,246.54,61.64,244.33,61.64,241.61"/>
	<path class="st0" d="M108.48,266.26H86.29c-2.72,0-4.93,2.21-4.93,4.93c0,2.72,2.21,4.93,4.93,4.93h22.19
		c2.72,0,4.93-2.21,4.93-4.93C113.41,268.47,111.2,266.26,108.48,266.26"/>
	<path class="st0" d="M61.64,271.19c0-2.72-2.21-4.93-4.94-4.93H41.91c-2.72,0-4.93,2.21-4.93,4.93c0,2.72,2.21,4.94,4.93,4.94
		h14.79C59.43,276.13,61.64,273.91,61.64,271.19"/>
	<path class="st0" d="M108.48,295.84H86.29c-2.72,0-4.93,2.21-4.93,4.93c0,2.72,2.21,4.93,4.93,4.93h22.19
		c2.72,0,4.93-2.21,4.93-4.93C113.41,298.05,111.2,295.84,108.48,295.84"/>
	<path class="st0" d="M61.64,300.77c0-2.72-2.21-4.93-4.94-4.93H41.91c-2.72,0-4.93,2.21-4.93,4.93c0,2.72,2.21,4.93,4.93,4.93
		h14.79C59.43,305.71,61.64,303.5,61.64,300.77"/>
	<path class="st0" d="M108.48,325.42H86.29c-2.72,0-4.93,2.21-4.93,4.93c0,2.72,2.21,4.93,4.93,4.93h22.19
		c2.72,0,4.93-2.21,4.93-4.93C113.41,327.64,111.2,325.42,108.48,325.42"/>
	<path class="st0" d="M61.64,330.36c0-2.72-2.21-4.93-4.94-4.93H41.91c-2.72,0-4.93,2.21-4.93,4.93c0,2.72,2.21,4.93,4.93,4.93
		h14.79C59.43,335.29,61.64,333.08,61.64,330.36"/>
	<path class="st0" d="M197.23,110.94h-7.4c-2.72,0-4.93,2.21-4.93,4.94c0,2.72,2.21,4.93,4.93,4.93h7.4c2.72,0,4.93-2.21,4.93-4.93
		C202.17,113.15,199.95,110.94,197.23,110.94"/>
	<path class="st0" d="M226.82,120.81h7.4c2.72,0,4.93-2.21,4.93-4.93c0-2.72-2.21-4.93-4.93-4.93h-7.4c-2.72,0-4.93,2.21-4.93,4.93
		C221.88,118.6,224.09,120.81,226.82,120.81"/>
	<path class="st0" d="M160.25,110.94h-7.4c-2.72,0-4.93,2.21-4.93,4.94c0,2.72,2.21,4.93,4.93,4.93h7.4c2.72,0,4.93-2.21,4.93-4.93
		C165.19,113.15,162.97,110.94,160.25,110.94"/>
	<path class="st0" d="M115.87,91.22h73.96c2.72,0,4.94-2.21,4.94-4.93c0-2.72-2.21-4.93-4.94-4.93h-73.96
		c-2.72,0-4.93,2.21-4.93,4.93C110.94,89.01,113.15,91.22,115.87,91.22"/>
	<path class="st0" d="M322.96,192.3h-32.05V78.89c0-1.32-0.51-2.56-1.44-3.49L215.51,1.44C214.58,0.51,213.34,0,212.02,0H19.73
		C8.85,0,0,8.85,0,19.73v355.01c0,10.88,8.85,19.73,19.73,19.73h113.4v17.26c0,14.95,12.17,27.12,27.12,27.12h162.71
		c14.95,0,27.12-12.17,27.12-27.12v-192.3c0-7.23-2.82-14.04-7.95-19.17C337,195.12,330.2,192.3,322.96,192.3 M216.96,16.84
		l57.12,57.12h-39.86c-9.51,0-17.26-7.74-17.26-17.25V16.84z M133.13,219.42v165.17H19.73c-5.44,0-9.86-4.42-9.86-9.86V19.73
		c0-5.44,4.42-9.86,9.86-9.86h187.36v46.84c0,14.96,12.17,27.12,27.12,27.12h46.84v108.47h-120.8
		C145.3,192.3,133.13,204.46,133.13,219.42 M340.22,411.72c0,9.51-7.74,17.25-17.26,17.25H160.25c-9.51,0-17.26-7.74-17.26-17.25
		v-192.3c0-9.51,7.74-17.25,17.26-17.25h162.71c9.51,0,17.26,7.74,17.26,17.25V411.72z"/>
	<path class="st0" d="M308.17,221.88H175.04c-6.8,0-12.33,5.53-12.33,12.33v29.59c0,6.8,5.53,12.33,12.33,12.33h133.13
		c6.8,0,12.33-5.53,12.33-12.33v-29.59C320.5,227.41,314.97,221.88,308.17,221.88 M308.17,266.26H175.04c-1.36,0-2.46-1.1-2.46-2.46
		v-29.59c0-1.36,1.1-2.46,2.46-2.46h133.13c1.36,0,2.46,1.1,2.46,2.46l0,29.59C310.63,265.15,309.53,266.26,308.17,266.26"/>
	<path class="st0" d="M189.83,303.24h-14.79c-6.8,0-12.33,5.53-12.33,12.33v14.79c0,6.8,5.53,12.33,12.33,12.33h14.79
		c6.8,0,12.33-5.53,12.33-12.33v-14.79C202.16,308.77,196.63,303.24,189.83,303.24 M189.84,332.82h-14.79
		c-1.36,0-2.46-1.1-2.46-2.46v-14.79c0-1.36,1.1-2.46,2.46-2.46h14.79c1.36,0,2.46,1.1,2.46,2.46l0,14.79
		C192.3,331.72,191.19,332.82,189.84,332.82"/>
	<path class="st0" d="M308.17,303.24h-14.79c-6.8,0-12.33,5.53-12.33,12.33v14.79c0,6.8,5.53,12.33,12.33,12.33h14.79
		c6.8,0,12.33-5.53,12.33-12.33v-14.79C320.5,308.77,314.97,303.24,308.17,303.24 M310.63,330.36c0,1.36-1.1,2.46-2.46,2.46h-14.79
		c-1.36,0-2.46-1.1-2.46-2.46v-14.79c0-1.36,1.11-2.46,2.46-2.46h14.79c1.36,0,2.46,1.11,2.46,2.46V330.36z"/>
	<path class="st0" d="M249,303.24h-14.79c-6.8,0-12.33,5.53-12.33,12.33v14.79c0,6.8,5.53,12.33,12.33,12.33H249
		c6.8,0,12.33-5.53,12.33-12.33v-14.79C261.33,308.77,255.8,303.24,249,303.24 M251.47,330.36c0,1.36-1.1,2.46-2.46,2.46h-14.79
		c-1.36,0-2.46-1.1-2.46-2.46v-14.79c0-1.36,1.11-2.46,2.46-2.46H249c1.36,0,2.46,1.11,2.46,2.46V330.36z"/>
	<path class="st0" d="M189.83,362.41h-14.79c-6.8,0-12.33,5.53-12.33,12.33v14.79c0,6.8,5.53,12.33,12.33,12.33h14.79
		c6.8,0,12.33-5.53,12.33-12.33v-14.79C202.16,367.94,196.63,362.41,189.83,362.41 M189.84,391.99h-14.79
		c-1.36,0-2.46-1.1-2.46-2.46v-14.79c0-1.36,1.1-2.46,2.46-2.46h14.79c1.36,0,2.46,1.1,2.46,2.46l0,14.79
		C192.3,390.89,191.19,391.99,189.84,391.99"/>
	<path class="st0" d="M308.17,362.41h-14.79c-6.8,0-12.33,5.53-12.33,12.33v14.79c0,6.8,5.53,12.33,12.33,12.33h14.79
		c6.8,0,12.33-5.53,12.33-12.33v-14.79C320.5,367.94,314.97,362.41,308.17,362.41 M310.63,389.53c0,1.36-1.1,2.46-2.46,2.46h-14.79
		c-1.36,0-2.46-1.11-2.46-2.46v-14.79c0-1.36,1.11-2.46,2.46-2.46h14.79c1.36,0,2.46,1.11,2.46,2.46V389.53z"/>
	<path class="st0" d="M249,362.41h-14.79c-6.8,0-12.33,5.53-12.33,12.33v14.79c0,6.8,5.53,12.33,12.33,12.33H249
		c6.8,0,12.33-5.53,12.33-12.33v-14.79C261.33,367.94,255.8,362.41,249,362.41 M251.47,389.53c0,1.36-1.1,2.46-2.46,2.46h-14.79
		c-1.36,0-2.46-1.11-2.46-2.46v-14.79c0-1.36,1.11-2.46,2.46-2.46H249c1.36,0,2.46,1.11,2.46,2.46V389.53z"/>
</g>
</svg>
