<?xml version="1.0" encoding="utf-8"?>
<!-- Generator: Adobe Illustrator 20.1.0, SVG Export Plug-In . SVG Version: 6.00 Build 0)  -->
<svg version="1.1" id="Слой_1" xmlns="http://www.w3.org/2000/svg" xmlns:xlink="http://www.w3.org/1999/xlink" x="0px" y="0px"
	 viewBox="0 0 449.12 301.16" style="enable-background:new 0 0 449.12 301.16;" xml:space="preserve">
<style type="text/css">
	.st0{clip-path:url(#SVGID_2_);}
</style>
<g>
	<defs>
		<rect id="SVGID_1_" width="449.12" height="301.16"/>
	</defs>
	<clipPath id="SVGID_2_">
		<use xlink:href="#SVGID_1_"  style="overflow:visible;"/>
	</clipPath>
	<path class="st0" d="M343.25,210.78c2.86,9.99,1.75,19.77-5.11,27.97c-6.84,8.17-15.95,10.82-26.43,8.39
		c2.34,24.21-21.55,40.29-39.97,27.1c-1.58,4.69-2.56,9.91-4.99,14.33c-7.45,13.55-22.71,16.75-34.53,6.73
		c-3.77-3.19-8.08-5.74-12.57-8.88c-6.65,8.08-14.75,12.26-25.41,9.3c-10.51-2.93-15.66-10.48-18.01-20.96
		c-7.82,6.35-15.95,9.93-25.85,5.86c-9.37-3.86-13.78-11.46-15.98-21.01c-9.07,2.13-17.64,3.23-25.26-3.39
		c-7.07-6.14-10.38-13.6-8.93-23.45c-11.98,0.8-20.85-4.1-25.52-14.64c-4.74-10.71-1.88-20.49,6.78-29.17
		c-9.28-6.49-18.1-13.14-27.4-19.05c-16.95-10.78-34.16-21.15-51.31-31.62c-2.85-1.74-3.62-3.95-1.77-6.63
		c2.02-2.93,4.53-1.87,6.99-0.35c15.52,9.6,31.05,19.2,46.6,28.76c7.02,4.32,10.87,3.51,15.26-3.51
		c6.6-10.56,12.94-21.29,19.49-31.87c13.38-21.59,26.84-43.14,40.24-64.71c1.22-1.97,2.52-3.96,3.35-6.1
		c2.31-6.02,0.69-9.37-4.87-12.74c-11.49-6.98-22.83-14.21-34.2-21.39c-2.41-1.52-4.33-3.63-2.52-6.59
		c1.82-2.96,4.28-2.21,6.88-0.61c11.31,6.96,22.71,13.79,34.05,20.71c1.55,0.95,3.38,1.84,4.34,3.27c3.66,5.42,8.86,5.24,14.53,5.09
		c17.26-0.45,34.75-2.26,51.72-0.13c13.3,1.67,24.86-1.47,36.99-4.57c12.84-3.28,25.96-3.41,39.1-2.85
		c5.13,0.22,10.25,0.92,15.38,1.15c1.01,0.05,2.76-0.9,2.99-1.72c1.71-6.09,6.88-8.79,11.45-11.97
		c9.81-6.83,19.75-13.47,29.65-20.17c2.29-1.55,4.71-2.21,6.5,0.56c1.75,2.71,0.94,4.91-1.76,6.74
		c-10.3,6.99-20.46,14.2-30.82,21.11c-7.58,5.05-9.62,10.96-3.52,18.9c10.09,13.13,18.67,27.43,28.01,41.15
		c12.33,18.11,24.78,36.14,37.18,54.2c1.88,2.73,3.52,5.69,5.78,8.06c3.98,4.16,7.99,4.29,12.51,1.19
		c16.28-11.18,32.53-22.42,49-33.31c1.59-1.05,5.7-0.82,6.79,0.43c2.19,2.5,0.58,5.02-2.28,6.85
		c-25.55,16.41-51.06,32.89-76.49,49.5c-1.06,0.69-1.64,2.94-1.57,4.41c0.54,10.95-3.79,19.48-12.89,25.3
		C351.64,208.5,347.54,209.23,343.25,210.78 M145.53,49.81c-25.32,41.6-49.23,81.6-74.96,120.76c3.77,2.56,8.61,5.25,12.73,8.79
		c4.05,3.48,6.64,2.52,9.91-0.92c4-4.21,8.12-8.49,12.86-11.78c11.15-7.74,27.57-2.64,33.2,9.87c1.06,2.36,1.97,4.8,3.11,7.6
		c8.02-6.26,16.53-9.06,25.85-5.09c9.2,3.92,14.18,11.44,15.51,21.36c10.65-3.67,19.89-3.13,27.94,5.24
		c8.08,8.4,7.81,17.96,4.61,28.08c12.88,1.78,20.42,11.71,21.68,19.69c1.77,11.2-2.12,20.16-11.89,27.12
		c5.41,3.66,9.91,7.39,15,10.01c9.55,4.91,20.1-2.46,20.56-13.26c0.43-9.96-5.3-15.64-12.37-20.78c-2.65-1.93-4.09-4.19-1.89-7.1
		c2.56-3.38,5.14-1.59,7.68,0.41c7.29,5.76,14.48,11.66,22.02,17.09c5.04,3.62,10.93,4.27,16.52,1.27
		c10.14-5.45,12.56-21.83,4.16-29.78c-5.16-4.88-11.19-8.85-16.91-13.12c-4.25-3.18-8.68-6.12-12.94-9.28
		c-2.46-1.83-4.4-4.62-1.86-7.07c1.26-1.21,4.69-0.59,7-0.13c1.49,0.3,2.75,1.78,4.08,2.78c10.65,7.95,21.1,16.18,32.04,23.71
		c3.29,2.27,7.93,3.71,11.91,3.61c7.59-0.19,12.09-5.83,13.87-12.44c1.89-7.01,1.5-14.54-4.83-19.71
		c-5.64-4.61-11.82-8.58-17.8-12.78c-6.93-4.87-14.04-9.5-20.76-14.65c-1.32-1.01-1.22-3.87-1.78-5.88
		c2.03-0.48,4.07-1.36,6.09-1.31c1.28,0.03,2.57,1.38,3.79,2.24c11.13,7.85,22.09,15.94,33.45,23.44c3.1,2.04,7.48,3.5,11.07,3.16
		c7.98-0.75,12.94-6.35,14.49-13.82c1.5-7.22,0.22-14.37-6.26-19.33c-6.06-4.64-12.17-9.23-18.42-13.61
		c-16.33-11.43-32.78-22.69-49.14-34.07c-12.27-8.54-24.51-17.11-36.66-25.82c-2.27-1.62-3.99-1.71-6.26-0.2
		c-4.01,2.66-8.13,5.18-12.29,7.61c-18.34,10.73-36.81,21.25-55.03,32.17c-9.84,5.9-19.73,6.77-29.78,1.41
		c-8.9-4.74-14.51-12.44-15.35-22.51c-0.94-11.3,2.69-21.17,13.03-27.21c16.92-9.88,34.02-19.45,51.02-29.19
		c3.28-1.88,6.47-3.92,10.86-6.58H145.53z M376.43,161.92c-2.23-2.88-4.47-5.51-6.41-8.34c-10.89-15.88-21.73-31.78-32.53-47.72
		c-13.22-19.51-26.33-39.09-39.65-58.52c-1.1-1.6-3.43-3.14-5.31-3.29c-8.43-0.67-16.9-0.85-25.36-1.16
		c-20.28-0.75-39.24,4.5-56.88,13.98c-20.61,11.06-40.59,23.28-61.18,34.38c-10.85,5.85-12.84,20.03-9.52,26.56
		c5.8,11.37,17.32,15.59,28.48,9.63c11.11-5.93,21.83-12.61,32.69-19.01c14.01-8.26,27.96-16.62,42.05-24.74
		c1.28-0.74,3.65-0.57,5.06,0.1c2.67,1.27,5.04,3.18,7.49,4.89c17.54,12.27,35.05,24.59,52.61,36.83
		c18.25,12.71,36.63,25.23,54.77,38.1c3.79,2.69,6.85,3.52,10.51,0.37C374.23,163.13,375.43,162.56,376.43,161.92 M174.45,202.34
		c0.05-7.48-3.32-12.85-9.18-15.32c-4.5-1.89-12.41-0.29-15.83,3.07c-12.17,11.97-24.34,23.94-36.58,35.84
		c-5.6,5.45-5.49,16.45,0.39,22.53c5.26,5.43,15.09,5.53,20.75,0.05c11.82-11.44,23.51-23,35.36-34.4
		C172.97,210.64,174.73,206.61,174.45,202.34 M209.74,221.49c0-5.04-4.03-11.55-8.54-13.08c-5.71-1.94-11.4-2.59-16.3,2.2
		c-12.34,12.05-24.67,24.1-37.04,36.12c-5.69,5.53-5.73,16.41,0,22.21c5.92,5.99,15.1,6.18,21.05,0.37
		c11.76-11.49,23.39-23.12,35.26-34.48C208.09,231.07,209.79,226.74,209.74,221.49 M133.97,188.78c-1.48-7.55-3.7-12.65-9.57-15.49
		c-6.21-3.01-11.63-1.75-16.45,2.81c-7.59,7.18-15.17,14.37-22.63,21.69c-5.48,5.37-5.15,15.95,0.48,21.69
		c5.72,5.84,14.43,6.02,20.55,0.3c7.16-6.7,14.51-13.23,21.22-20.36C130.59,196.21,132.25,191.73,133.97,188.78 M229.39,258.78
		c0.54-6.61-2.27-11.42-7.88-14.46c-5.14-2.78-10.77-2.3-15.11,1.01c-6.16,4.7-11.83,10.18-17.13,15.86
		c-6.3,6.75-5.67,15.99,0.83,22.39c6.19,6.09,13.88,5.81,21.19-0.83c4.3-3.91,8.48-7.95,12.83-11.8
		C227.85,267.66,229.92,263.75,229.39,258.78"/>
	<path class="st0" d="M71.45,128.94c0.1,8.93-9.33,18.07-18.6,18.03c-9.2-0.04-18.24-8.66-18.46-17.59
		c-0.26-10.73,7.89-19.16,18.52-19.17C63.25,110.2,71.33,118.37,71.45,128.94 M40.51,128.49c0.05,6.51,5.9,12.43,12.3,12.45
		c6.64,0.02,12.38-5.92,12.41-12.85c0.03-6.48-5.85-12.1-12.54-11.99C46.02,116.2,40.47,121.84,40.51,128.49"/>
</g>
</svg>
