<?xml version="1.0" encoding="utf-8"?>
<!-- Generator: Adobe Illustrator 21.0.2, SVG Export Plug-In . SVG Version: 6.00 Build 0)  -->
<svg version="1.1" id="Слой_1" xmlns="http://www.w3.org/2000/svg" xmlns:xlink="http://www.w3.org/1999/xlink" x="0px" y="0px"
	 viewBox="0 0 470 470" style="enable-background:new 0 0 470 470;" xml:space="preserve" fill="#416075">
<style type="text/css">
	.st0{fill:#010002;}
</style>
<path d="M445,63L445,63c-0.7-0.8-1.6-1.3-2.7-1.4l-89.4-7.6l-1.8-14.3c-0.1-1-0.7-2-1.5-2.6c-0.8-0.6-1.9-0.9-2.9-0.8l-81.9,10.3
	l-0.4-0.1c-0.2-0.1-0.4-0.1-0.7-0.1l-112-9.6c-0.1,0-0.2,0-0.3,0c-0.9,0-1.8,0.3-2.5,0.9c-0.8,0.7-1.3,1.6-1.4,2.7l-1.8,21.2
	L57.5,72.6c-2.1,0.3-3.7,2.3-3.4,4.4l44.3,352.1c0.1,0.7,0.1,1.3,0.1,1.9c0,0.9,0,1.6,0.3,2.3c0.6,1.4,2.1,2.4,3.6,2.4h291.5
	c2.2,0,3.9-1.8,3.9-3.9v-9.9l13.7,1.2c1,0.1,2-0.2,2.9-0.9c0.8-0.7,1.3-1.6,1.4-2.7L446,65.8C446,64.8,445.7,63.8,445,63z
	 M98.4,334.5l-4,0.2L62.4,80l36-4.5V334.5z M155.1,45l72.9,6.2l-74.2,9.3L155.1,45z M343.8,44.6l3.6,28.4H150l-0.2-4L343.8,44.6z
	 M408.2,414.9l-10.4-0.9V238.5c0-2.2-1.8-3.9-3.9-3.9c-2.2,0-3.9,1.8-3.9,3.9v189.4H106.3v-347h283.7v129.9c0,2.2,1.8,3.9,3.9,3.9
	c2.2,0,3.9-1.8,3.9-3.9V76.9c0-2.2-1.8-3.9-3.9-3.9h-38.5l-1.4-11l83.8,7.2L408.2,414.9z"/>
<path d="M366.1,108.6c0-2.2-1.8-3.9-3.9-3.9h-31.7c-1.3,0-2.5,0.7-3.3,1.8l-14.6,21.9l-1.7-1.2c-14.7-10.5-32.1-16.1-50.2-16.1
	c-2.2,0-3.9,1.8-3.9,3.9v82.4c0,2.2,1.8,3.9,3.9,3.9h82.4c2.2,0,3.9-1.8,3.9-3.9c0-24-9.6-46.3-27.2-62.8l-1.2-1.2l13.9-20.8h29.6
	C364.4,112.5,366.1,110.8,366.1,108.6z M339,191.2l0.2,2.2h-74.4v-74.4l2.2,0.2c14.3,1.1,28.1,6.2,39.8,14.6l1.6,1.1l-6.4,9.6
	c-1.1,1.6-0.8,3.9,0.7,5.2c0.8,0.7,2,1,3.1,0.9c1.1-0.2,2.1-0.8,2.7-1.7l5.9-8.8l1.7,1.7C329.4,155,337.5,172.6,339,191.2z"/>
<path d="M362.2,301.1h-54.9l-10.9-17.4l1.1-1.1c15.6-16.2,24.2-37.5,24.2-59.9c0-2.2-1.8-3.9-3.9-3.9h-78.5v-78.5
	c0-2.2-1.8-3.9-3.9-3.9c-47.6,0-86.3,38.7-86.3,86.3c0,47.6,38.7,86.3,86.3,86.3c19.5,0,38-6.4,53.4-18.5l1.8-1.4l11.3,18
	c0.7,1.2,2,1.9,3.3,1.9h57c2.2,0,3.9-1.8,3.9-3.9C366.1,302.9,364.4,301.1,362.2,301.1z M292.2,276.9l-15.4-24.6
	c-0.6-0.9-1.4-1.5-2.5-1.8c-1-0.2-2.1-0.1-3,0.5c-0.9,0.6-1.5,1.4-1.8,2.5c-0.2,1-0.1,2.1,0.5,3l16.2,25.9l-1.4,1.1
	c-13.9,11.4-31.5,17.6-49.5,17.6c-43.3,0-78.5-35.2-78.5-78.5c0-40.7,31.8-75.1,72.4-78.2l2.2-0.2v78.4c0,2.2,1.8,3.9,3.9,3.9h78.4
	l-0.2,2.2c-1.3,17.2-8.1,33.2-19.7,46.1L292.2,276.9z"/>
<path d="M134,340.7h50.7c2.2,0,3.9-1.8,3.9-3.9c0-2.2-1.8-3.9-3.9-3.9H134c-2.2,0-3.9,1.8-3.9,3.9
	C130.1,338.9,131.8,340.7,134,340.7z"/>
<path d="M260.8,332.8h-50.7c-2.2,0-3.9,1.8-3.9,3.9c0,2.2,1.8,3.9,3.9,3.9h50.7c2.2,0,3.9-1.8,3.9-3.9
	C264.7,334.6,262.9,332.8,260.8,332.8z"/>
<path d="M134,372.4h82.4c2.2,0,3.9-1.8,3.9-3.9s-1.8-3.9-3.9-3.9H134c-2.2,0-3.9,1.8-3.9,3.9S131.8,372.4,134,372.4z"/>
<path d="M264.7,368.4c0-2.2-1.8-3.9-3.9-3.9h-19c-2.2,0-3.9,1.8-3.9,3.9s1.8,3.9,3.9,3.9h19C262.9,372.4,264.7,370.6,264.7,368.4z"
	/>
<path d="M159.4,396.2H134c-2.2,0-3.9,1.8-3.9,3.9c0,2.2,1.8,3.9,3.9,3.9h25.4c2.2,0,3.9-1.8,3.9-3.9
	C163.3,398,161.5,396.2,159.4,396.2z"/>
<path d="M260.8,396.2h-76.1c-2.2,0-3.9,1.8-3.9,3.9c0,2.2,1.8,3.9,3.9,3.9h76.1c2.2,0,3.9-1.8,3.9-3.9
	C264.7,398,262.9,396.2,260.8,396.2z"/>
</svg>
