<?xml version="1.0" encoding="utf-8"?>
<!-- Generator: Adobe Illustrator 21.0.2, SVG Export Plug-In . SVG Version: 6.00 Build 0)  -->
<svg version="1.1" id="Слой_1" xmlns="http://www.w3.org/2000/svg" xmlns:xlink="http://www.w3.org/1999/xlink" x="0px" y="0px"
	 viewBox="0 0 470 470" style="enable-background:new 0 0 470 470;" xml:space="preserve">
<style type="text/css">
	.st0{fill:#010002;}
</style>
<g>
	<path d="M409.7,299.8c-1.3-31.1-23.7-58-54.4-65.4l-9.1-2.2l0.8-2.4c7.6-21.9,9.4-43.3,5.4-65.6c-5.7-31.6-23.3-59.7-49.7-79.1
		c-26.4-19.4-58.5-27.7-90.3-23.6c-26.4,3.4-50.7,14.7-70,32.7c-19.3,17.9-32.5,41.2-38,67.4c-0.8,3.6-2.5,5.4-6.1,6.4
		c-16.9,4.6-31.5,15.4-41,30.4c-9.6,15-13.1,32.7-9.9,49.8c5.1,27.3,21,46,47.4,55.6c3.1,1.1,4.7,2.9,5.5,6
		c1.7,6.8,3.6,13.7,5.5,20.3c0.7,2.6,1.4,5.1,2.1,7.7l4.7,17.2H102v7.3h31.6v-7.4H124v-2.3c0-0.3,0-0.5,0-0.6c0-0.5,0-1,0.1-1.5
		l1.6-5.7c3.2-11.9,6.6-24.2,10-36.3c0.6-2,2.7-3.4,4-4c5.2-2.6,11.3-5.7,17.6-8.6c1.9-0.8,4.4-0.9,6.2,0c7.5,3.4,14,6.6,20.1,9.7
		c1.8,1,4.1,3,4.9,5.4c9.3,28.2,18.7,57,27.8,84.8l4.5,13.7c0.3,0.8,0.5,1.6,0.8,2.5c0.1,0.5,0.3,0.9,0.4,1.5l0.9,2.9h-10.3v7.3H244
		v-7.3h-10.6l33.5-102.5l3.4,10.5c6.8,21.3,19.7,35.9,38.4,43.5c9.2,3.7,13.8,9.1,15.9,18.6c1.4,6.2,3.3,12.1,5.3,18.5
		c0.9,2.8,1.8,5.6,2.6,8.5l0.9,3h-10.6v7.3h31.6v-7.6h-10.6l0.9-3c1-3.3,1.9-6.5,2.9-9.7c2.8-9.1,5.4-17.8,7.9-26.6
		c0.9-3,2.6-4.7,5.7-5.8C391.6,361,411.1,332.4,409.7,299.8z M102.8,203.9c3.5,24.3,13.2,46.2,28.8,64.9l1.8,2.2l-2.5,1.3
		c-4,2.1-8.5,3.1-13.2,3.1c-3.9,0-7.9-0.7-12-2.1c-10.5-3.7-19.3-11.6-23.7-21.3c-4.3-9.5-4.3-21.3,0-31.6
		c3.7-8.9,9.9-15.4,17.6-18.3l2.7-1L102.8,203.9z M150.6,291.5c-1.7,0.7-3.4,1.4-5,2c-3.8,1.6-7.4,3-11.2,4.2
		c-3.1,0.9-4.5,2.3-5.2,5.1c-1.7,6.9-3.7,13.8-5.6,20.5c-0.7,2.4-1.3,4.8-2,7.2c-0.4,1.4-0.9,3.1-2.4,4.8l-2.8,3.3l-2.8-10.1
		c-1.3-4.8-2.7-9.6-4-14.3l-0.4-1.6c-0.9-3.3-1.9-6.8-2.7-10.2c-0.6-2.4-1.9-3.6-4.5-4.3c-14.7-4-26.9-12.3-35.5-23.9
		c-8.5-11.6-12.7-25.8-12.1-41.1c0.9-24.3,17.5-47.2,40.4-55.7c0.9-0.3,1.7-0.6,2.7-0.8c0.5-0.1,0.9-0.3,1.5-0.4l3-0.9v3.1
		c0,1.1,0,2.2,0,3.3c0,2.7,0.1,5.2-0.2,7.8c-0.2,2.3-2.6,4.1-3.9,4.8c-17.5,9.3-26.4,23.6-26.5,42.6c-0.1,15.1,7.5,29.3,20.2,38
		c12.8,8.7,29,10.6,43.1,4.9c3-1.2,6.2-1.8,9.5,1.8c1.2,1.3,2.7,2.5,4.4,3.9c0.9,0.7,1.8,1.5,2.8,2.4l2.9,2.5L150.6,291.5z
		 M268.4,298.6c-3.9,1.5-5.8,3.5-7.1,7.3c-7.4,23.1-15.1,46.5-22.5,69.1c-2.3,7-4.6,14-6.9,21.1c-0.3,0.8-0.6,1.6-0.9,2.5
		c-0.1,0.4-0.3,0.7-0.4,1.1l-0.6,1.6l-4.1-0.2l-5.8-17.7c-4-12.2-7.9-24.3-11.9-36.5c-1.4-4.1-2.7-8.3-4.1-12.4
		c-3.2-9.5-6.4-19.4-9.4-29.1c-1.1-3.4-2.7-5.2-6.3-6.6c-45.2-17.6-71.4-50.2-78-96.9c-4.2-29.6,3.4-59.5,21.3-84.2
		c17.8-24.6,43.8-41.3,73.3-47.1c32.7-6.4,65.6,0.7,92.6,20.2c27,19.4,44.2,48.3,48.4,81.2c3.5,26.9-2.2,53.4-16.3,76.4
		C315.6,271.5,294.4,288.9,268.4,298.6z M335.6,264.7c10.6-0.9,20.8,2.6,28.7,9.8c8.5,7.8,13.2,18.9,13.3,31.3l0,0.1
		c-0.8,14.8-8.8,26.5-22.5,32.9c-5.8,2.7-11.6,4.1-17.2,4.1c-8.4,0-16.5-3.1-24-9.2c-12.4-10.2-17-24-13.1-40
		c0.6-2.6,2.5-4.7,3.6-5.7c1-0.9,1.9-1.9,2.9-2.8c5.7-5.6,11.6-11.3,17.8-16.6C327.6,266.5,331.5,265,335.6,264.7z M355,364.8
		c-3.2,0.9-4.8,2.4-5.7,5.7c-1.8,6.5-3.8,13-5.7,19.3c-0.8,2.6-1.6,5.2-2.4,7.8l-0.4,1.5l-4.4,0.4l-0.5-1.8
		c-0.8-2.6-1.6-5.2-2.4-7.8c-1.9-6.2-3.9-12.5-5.6-18.9c-1-3.7-2.8-5.4-6.7-6.5c-25.5-6.9-44-29.3-46-55.8c-0.1-1.8,0.9-4.4,2.7-5.4
		c2.4-1.3,4.9-2.4,7.5-3.6c1-0.4,2-0.9,3-1.3l3.3-1.5l-0.1,3.6c-0.3,16.5,5.4,29.3,17.3,39.1c9.4,7.8,20.5,11.3,32.9,10.5
		c24.1-1.6,43.2-21.9,43.4-46.2c0.1-11.6-4.4-23.2-12.3-31.9c-6.1-6.7-17.2-14.8-34.9-15.5l-3.7-0.1l1.7-3.2c0.5-1,1-2,1.5-3
		c1.3-2.7,2.7-5.4,4.5-7.9c1.5-2.2,5.5-1.7,7.2-1.4c21.9,4.2,37.6,16.1,46.7,35.6c8.1,17.1,8.2,36.7,0.3,53.6
		C388.5,347.2,373.4,359.9,355,364.8z"/>
	<rect x="151.1" y="355.1" width="7.2" height="7.3"/>
	<rect x="261.3" y="416.5" width="7.3" height="7.2"/>
	<rect x="371.7" y="416.4" width="7.2" height="7.3"/>
	<path d="M236.9,240c25,0,50,0,75,0c4.9,0,5.9-1,5.9-6l0-8.1c0-22.3,0-45.4-0.1-68.1c0-1.5-0.6-3.4-1.5-4.6
		c-13.7-18.5-24.9-33.5-35.4-47.1c-0.9-1.2-3.1-2.4-4.5-2.4c-23.2-0.2-46.8-0.2-69.6-0.2c-8.7,0-17.4,0-26.1,0c0,0,0,0,0,0
		c-2.5,0-4.1,0.8-5.6,2.9c-4.8,6.5-9.7,13-14.4,19.3c-6.6,8.8-13.5,18-20.1,27c-1.1,1.5-1.8,3.8-1.9,5.6
		c-0.1,20.3-0.1,40.9-0.1,60.8l0,14.7c0,5.2,0.9,6.2,6.1,6.2c4.7,0,9.4,0,14,0c23.2,0,46.3,0,69.5,0L236.9,240z M187.3,232h-16.4
		v-40.9h16.4V232z M212.3,176.6c-0.7,11.5-0.6,23.2-0.4,34.6c0.1,4.9,0.1,10,0.1,15v5.9h-16.9l0-16.9c0-8.8,0-17.6,0-26.4
		c0-4.4-1.1-5.5-5.6-5.5c-7.8,0-14.8,0-21.4,0c-4,0-5.1,1.2-5.2,5.2c0,9.7,0,19.5,0,29.4l0,14.3h-16.5l-0.1-2.1c0-0.3-0.1-0.7-0.1-1
		c-0.1-0.8-0.1-1.6-0.1-2.5l0-6.7c0-19,0-38.7,0-58c0-1.2,0.2-4.1,1.8-6.3c6.6-9,13.4-18.1,20-26.8c2.7-3.6,5.4-7.2,8.1-10.9
		c0-0.1,0.1-0.3,0.1-0.4c0.1-0.3,0.2-0.6,0.4-1l1.5-3.9l2.5,3.3c2.3,3,4.4,6,6.5,8.9c4.5,6.3,8.8,12.3,13.7,17.7
		C209.5,152.1,213.2,162.9,212.3,176.6z M216.1,150.2c-7-9.2-13.8-18.3-21-27.9l-7.7-10.2l4-0.5c0.4,0,0.8-0.1,1.1-0.1
		c0.7-0.1,1.3-0.2,2-0.2l4.5,0c23.7,0,48.3,0,72.4,0.1c1.9,0,4.4,0.9,5.7,2.5c7.3,9.5,14.6,19.3,21.7,28.7l3.9,5.2
		c0.5,0.6,0.5,1.3,0.6,1.7c0,0.1,0,0.3,0.1,0.5l0.4,2.6l-14.8,0c-4,0-7.9,0-11.9,0c-18.5,0-37.3,0-55.8-0.1
		C219.5,152.5,217.3,151.7,216.1,150.2z M220,160.6H310v71.6H220V160.6z"/>
	<rect x="279.7" y="183.5" width="7.2" height="7.2"/>
	<rect x="242.9" y="183.6" width="7.2" height="7.2"/>
</g>
</svg>
