<?xml version="1.0" encoding="utf-8"?>
<!-- Generator: Adobe Illustrator 21.0.2, SVG Export Plug-In . SVG Version: 6.00 Build 0)  -->
<svg version="1.1" id="Слой_1" xmlns="http://www.w3.org/2000/svg" xmlns:xlink="http://www.w3.org/1999/xlink" x="0px" y="0px"
	 viewBox="0 0 470 470" style="enable-background:new 0 0 470 470;" xml:space="preserve" width="35" height="38" fill="#3a4e62">
<style type="text/css">
	.st0{fill:#010002;}
</style>
<path d="M71.5,157.9L71.5,157.9c1.3,0.4,2.6,0.2,3.7-0.4c1.2-0.6,2-1.7,2.4-2.9c20.8-71.3,87.1-121,161.5-121
	c11.9,0,23.7,1.2,35.2,3.7l1.6,0.3l0,1.7c-0.2,9.4,3.8,15.8,6.5,20.1c1.5,2.5,1.9,3,2,3.2l0.2,0.4v0.5c0,19.2-3,26.6-4.8,29.3
	l0.5,1.6h-2.7c-10.4,0-28.3,9.8-34.8,21.9c-3.9,7.2-3.6,14.9,0.9,21.6c3.4,5.1,6.3,10.7,9.1,16.1c5.6,10.8,11.9,23,20.9,23
	c1.9,0,4-0.5,6.1-1.6c7.5-3.7,13.1-14.9,18.6-25.7c3.3-6.5,6.4-12.5,8.6-14.8l0.7-0.7l1,0.1c8,1.1,11.8,8,16.7,18.5
	c3.3,7.1,6.7,14.4,13,17.6c11.1,5.5,49.3-0.7,69.8-9.4c2.2-1,3.5-3.5,2.8-5.8c-14.4-53.1-53.4-97.3-104.4-118.2
	c-1.2-0.5-2.6-0.5-3.8,0c-1.2,0.5-2.2,1.5-2.7,2.7c-0.5,1.2-0.5,2.6,0,3.8c0.5,1.2,1.5,2.2,2.7,2.7c45.9,18.8,82.1,58.3,96.9,105.6
	l0.6,1.8l-1.8,0.6c-20.4,7.2-49.6,10.4-55.7,7.4c-3-1.5-5.4-6.3-8.5-12.9c-4.9-10.5-10.9-23.7-26.6-24.4
	c-7.3-0.4-11.9,8.7-17.8,20.4l-0.3,0.6c-5.1,10.1-10,19.3-14.7,21.6l-0.6,0.3l-0.7-0.2c-2.9-0.7-6.3-6.4-12-17.4
	c-2.8-5.4-6-11.6-9.7-17.1c-2.5-3.7-2.6-7.3-0.4-11.5c5.2-9.6,20.2-16.7,26.1-16.7c11.2,0,16.9-13.7,16.9-40.7
	c0-3.4-1.8-6.3-3.7-9.4c-3-4.8-6.4-10.2-4.5-19.2c0.6-2.6-1-5.2-3.6-5.8c-14.2-3.6-28.9-5.4-43.6-5.4c-78.7,0-149,52.7-170.9,128.1
	c-0.4,1.3-0.2,2.6,0.4,3.7C69.2,156.7,70.2,157.5,71.5,157.9z"/>
<path d="M272.6,247.8c11.4,5.7,23.2,11.6,28.6,17c3.2,3.2,8.8,5,15.5,5c10.2,0,23.8-4.9,28.5-18.9c2.1-6.4,7-11,11.7-15.5
	c5.2-5,9.7-9.3,9.7-15.3c0-3.5-1.5-6.9-4.7-10.1c-4.5-4.5-10.6-6.7-18.3-6.7c-7.6,0-15.3,2.2-20.9,3.8l0,0l-0.5,0.1
	c-3.2,0.9-4.6,1.3-5.4,1.4l-0.2,0c-8.6,0-14.1,6.7-18.5,12.1c-3.4,4.1-5.8,6.5-8.2,6.6l-0.5,0l-0.4-0.2c-2.8-1.4-5.8-2.1-8.9-2.1
	c-7.2,0-13.5,4.2-14.9,10C264.3,238.9,265.8,244.4,272.6,247.8z M277.1,235.3c1.7-0.7,4.7-0.8,7.5,0.5c2,1,4,1.5,5.9,1.5
	c6.7,0,11-5.3,15.2-10.4c3.4-4.2,7-8.5,10.9-8.5c2.2,0,4.9-0.8,8.7-1.9c5.4-1.5,12-3.4,18.3-3.4c5,0,8.7,1.3,11.3,3.9
	c0.4,0.4,0.6,0.7,0.8,0.9h1.5l-0.6,2.5c-0.4,1.6-2.4,3.8-6.6,7.8c-5.1,4.8-11.4,10.9-14.3,19.5c-3.9,11.5-16.6,12.1-19.1,12.1
	c-4,0-7.3-1-8.4-2l-0.1-0.1c-6.6-6.6-18.5-12.5-31.1-18.8l-3.9-2L277.1,235.3z"/>
<path d="M196.2,374.4c1.3,0.3,2.6,0.1,3.7-0.6c1.1-0.7,1.9-1.8,2.2-3c0.3-1.3,0.1-2.6-0.6-3.7c-0.7-1.1-1.8-1.9-3-2.2
	c-75.2-18.6-127.7-85.7-127.7-163.2c0-4.9,0.2-9.2,0.5-13.5l0.2-1.8l1.8,0c0.1,0,0.1,0,0.2,0c10.6,0,21.2,1.2,27.2,3l2.5,0.8
	l-1.4,2.2c-7.7,11.9-6.4,35.4,2.5,45.6c6.3,7.2,15.1,7.5,24.3,0.6c25.9-19.4,38.3-45,31.5-65.2c-0.4-1.3-0.6-2.8,1.4-4.6
	c2.6-2.3,7.4-3.9,12.6-3.9c3.2,0,6.4,0.6,9.4,1.9c5.8,2.6,8.8,7.3,8.8,14.1c0,16.4-3.6,20.2-8.1,24.9c-3.1,3.3-7,7.4-9.6,15.3
	c-5.7,17.2,3.1,22.4,8.9,25.9c1.6,0.9,3.2,1.9,4.3,3c0.5,0.5,1,1,1.7,1.6c6.4,6,18.4,17.2,3.3,52.7c-15.9,37.1,25.8,63.5,43.7,74.7
	c0.8,0.5,1.7,0.8,2.6,0.8c98.1,0,178-79.8,178-178c0-8.2-0.6-16.5-1.7-24.6c-0.2-1.3-0.9-2.5-1.9-3.3c-1.1-0.8-2.3-1.1-3.6-1
	c-1.3,0.2-2.5,0.9-3.3,1.9c-0.8,1-1.1,2.3-1,3.6c1.1,7.7,1.6,15.5,1.6,23.3c0,44.5-17.3,86.5-48.6,118.2
	c-31.3,31.7-73.1,49.4-117.5,50l-0.6,0l-0.5-0.3c-23.6-15.1-49.2-35.6-38.2-61.4c17.9-41.8,1.4-57.2-5.6-63.7l-1.4-1.3
	c-2-2-4.2-3.3-6.2-4.5c-5.8-3.5-7.6-5.2-4.6-14.4c1.9-5.8,4.6-8.6,7.4-11.6c6.1-6.5,10.8-12.9,10.8-31.7c0-10.6-5.3-19-14.7-23.1
	c-10.8-4.8-25.1-3.1-32.6,3.7c-4.4,4-5.9,9.5-4.1,15c5.2,15.6-6.4,37.9-28.1,54.2c-6.3,4.7-9.1,2.9-10.9,0.8
	c-7-8.1-6.4-29.4-0.5-35.2c2.8-2.8,3.6-6.3,2.3-9.4c-4.2-9.6-31.2-10.9-46.5-10.2c-2.4,0.1-4.4,1.9-4.7,4.3
	c-0.9,7.1-1.2,13.3-1.2,20.7C61.1,283.7,116.6,354.8,196.2,374.4z"/>
<path d="M362.8,359.8c-1.6-2.2-4.7-2.6-6.9-1c-34,25.3-74.4,38.7-116.9,38.7c-108,0-195.8-87.8-195.8-195.8c0-2.7-2.2-4.9-4.9-4.9
	c-2.7,0-4.9,2.2-4.9,4.9c0,111.6,87.3,201.8,198.8,205.5l1.9,0.1v22.9c0,2.7,2.2,4.9,4.9,4.9s4.9-2.2,4.9-4.9v-23l1.9-0.1
	c42.2-1.4,82.3-15.3,115.9-40.4C364,365.1,364.4,362,362.8,359.8z"/>
<path d="M259.1,320.5c-1.6-4.9-4.9-10.1-8.6-13.9c-1.6-1.6-3.8-2.5-6.2-2.5c-7.6,0-17.2,9.3-20.6,17.6c-2.6,6.2-1.9,11.9,1.9,15.7
	c3.8,3.8,9.4,5.9,15.4,5.9c6,0,11.7-2.2,15.4-5.9C260.5,333.4,261.5,327.4,259.1,320.5z M249.5,330.5c-1.9,1.9-5.2,2.8-8.5,2.8
	c-3.2,0-6.5-0.9-8.4-2.8l-0.4-0.3l-0.2-0.5c-0.4-1.1,0-3.4,1.9-6.7c2.8-4.6,6.6-7.5,8.3-8.4l1.4-0.8l1,1.2c2.1,2.5,4,5.7,4.9,8.5
	C250.4,325.4,251.2,328.8,249.5,330.5z"/>
</svg>
