<?xml version="1.0" encoding="utf-8"?>
<!-- Generator: Adobe Illustrator 21.0.2, SVG Export Plug-In . SVG Version: 6.00 Build 0)  -->
<svg version="1.1" id="Слой_1" xmlns="http://www.w3.org/2000/svg" xmlns:xlink="http://www.w3.org/1999/xlink" x="0px" y="0px"
	 viewBox="0 0 470 470" style="enable-background:new 0 0 470 470;" xml:space="preserve" fill="#416075">
<circle cx="171" cy="271.2" r="4.5"/>
<path d="M171,399.4c2.5,0,4.5-2,4.5-4.5v-94c0-2.5-2-4.5-4.5-4.5s-4.5,2-4.5,4.5v94C166.5,397.4,168.5,399.4,171,399.4z"/>
<path d="M375,56.7c-0.4-1.4-1.4-2.6-2.8-3.1c-1.4-0.5-2.9-0.3-4.1,0.6c-20.3,14.8-45.5,36.5-50,48.9c-3.3,9.1-2.6,19.2,1.9,27.7
	l0.9,1.6l-1,1.5c-7.9,11.3-16.9,27.6-26.7,48.5l-5.7,12.1V57.8c0-2.5-2-4.5-4.5-4.5h-59.7c-2.5,0-4.5,2-4.5,4.5V207h-6.7l-13.3-51.8
	l-11.4-42.5l-0.3-0.3l0-0.8c0,0,0-0.1,0-0.1l-0.1-0.1c0-0.1-0.1-0.2-0.1-0.3l-0.1-0.1c-0.1-0.1-0.1-0.2-0.2-0.3l-0.1-0.1
	c-0.1-0.1-0.1-0.2-0.2-0.3l-0.1-0.1L142,58c-1.1-1.3-2.9-1.9-4.5-1.4c-1.6,0.4-2.9,1.8-3.3,3.5l-13.4,67.5c0,0.1,0,0.1,0,0.2
	c0,0.1,0,0.2,0,0.3l0,0.1c0,0.1,0,0.3,0,0.4l0,0.1c0,0.1,0,0.3,0,0.4l0,0.1c0,0.2,0.1,0.3,0.1,0.5l11.6,43.2l8.6,33.9l-3.2,0.5
	c-3.9,0.7-7.5,2.5-10.4,5.4c-3.7,3.7-5.7,8.5-5.7,13.7c0,8.2,5.2,15.5,12.9,18.3l2,0.7V395c0,18.9,15.4,34.3,34.3,34.3h149.2
	c18.9,0,34.3-15.4,34.3-34.3V245.4l2-0.7c2.7-1,5.2-2.5,7.2-4.6c3.7-3.7,5.7-8.5,5.7-13.7c0-9.3-6.6-17.3-15.7-19l-3.1-0.6l0.8-3.1
	c4.9-19.7,8.2-39,9.5-54.4l0.2-1.9l1.8-0.7c9.2-3.6,16.4-10.9,19.8-20.2C387,114.2,381.3,81.2,375,56.7L375,56.7z M227.6,62.3h50.8
	v23.2h-17.9c-2.5,0-4.5,2-4.5,4.5s2,4.5,4.5,4.5h17.9v20.9h-17.9c-2.5,0-4.5,2-4.5,4.5s2,4.5,4.5,4.5h17.9v20.9h-17.9
	c-2.5,0-4.5,2-4.5,4.5s2,4.5,4.5,4.5h17.9v20.9h-17.9c-2.5,0-4.5,2-4.5,4.5s2,4.5,4.5,4.5h17.9V207h-50.8V62.3z M141.1,70.9
	l36.2,42.7l-1.5,1.9c-5,6.4-11.9,10.9-19.8,13c-3.3,0.9-6.6,1.3-9.8,1.3c-4.7,0-9.3-0.9-13.7-2.6l-2.3-0.9L141.1,70.9z M132,136.7
	l4.8,1c7.1,1.5,14.5,1.3,21.6-0.6c7.1-1.9,13.5-5.4,19-10.3l3.6-3.3l9.1,33.9l12.7,49.6h-52.6l-9.2-36.4L132,136.7z M345.5,395
	c0,14-11.4,25.4-25.4,25.4H171c-14,0-25.4-11.4-25.4-25.4V245.8h199.9V395z M360.4,226.4c0,2.8-1.1,5.4-3.1,7.4
	c-2,2-4.6,3.1-7.4,3.1H141.1c-5.8,0-10.5-4.7-10.5-10.5c0-2.8,1.1-5.4,3.1-7.4c2-2,4.6-3.1,7.4-3.1H350
	C355.7,215.9,360.4,220.6,360.4,226.4z M351.5,152.4c-1.5,15.1-5,33.7-9.7,52.3l-0.6,2.3h-49.6l1.9-4.2c11.5-26.1,22-46.4,31.2-60.3
	l1.8-2.7l2.6,2c2.9,2.2,6,4,9.5,5.3c3.3,1.2,6.7,1.9,10.2,2l3.2,0.1L351.5,152.4z M374.1,123.5L374.1,123.5
	c-3,8.2-9.9,14.2-18.4,16.1c-1.8,0.4-3.6,0.6-5.4,0.6c-2.9,0-5.9-0.5-8.7-1.5c-4.7-1.7-8.8-4.8-11.7-8.8l-0.2-0.2
	c-4.9-6.8-6.2-15.6-3.3-23.5c3.8-10.6,29.9-31.6,37.8-37.8l3.8-3l1,4.7C371.1,79.9,377.9,113,374.1,123.5z"/>
</svg>
