<?xml version="1.0" encoding="utf-8"?>
<!-- Generator: Adobe Illustrator 21.0.2, SVG Export Plug-In . SVG Version: 6.00 Build 0)  -->
<svg version="1.1" id="Слой_1" xmlns="http://www.w3.org/2000/svg" xmlns:xlink="http://www.w3.org/1999/xlink" x="0px" y="0px"
	 viewBox="0 0 470 470" style="enable-background:new 0 0 470 470;" xml:space="preserve" fill="#416075">
<style type="text/css">
	.st0{fill:#010002;}
</style>
<path d="M327.7,400.1h68c2.3,0,4.2-1.9,4.2-4.2v-68c0-1.7-1-3.2-2.6-3.9h0c-0.5-0.2-1.1-0.3-1.6-0.3c-1.1,0-2.2,0.4-3,1.2l-68,68
	c-1.2,1.2-1.6,3-0.9,4.6C324.5,399,326,400.1,327.7,400.1z M391.4,338.1v53.6h-53.6L391.4,338.1z"/>
<path d="M442.2,224.3c-1.6-0.7-3.4-0.3-4.6,0.9l-22,22V115.8c0-2.3-1.9-4.2-4.2-4.2h-52.6l37.5-37.5c3.2-3.2,5-7.5,5-12
	c0-4.5-1.8-8.8-5-12l-19.3-19.3c-3.2-3.2-7.5-5-12-5c-4.5,0-8.8,1.8-12,5l-80.8,80.8H76.3V48.1c0-2.3-1.9-4.2-4.2-4.2
	c-25.9,0-46.9,21-46.9,46.9v264.1c0,0.3,0,0.6,0.1,0.9l0,0.3c0.8,10.9,5.6,21.2,13.5,28.9c8.5,8.3,19.6,12.8,31.5,12.8h194.8
	l-39.2,39.2c-1.2,1.2-1.6,3-0.9,4.6c0.7,1.6,2.2,2.6,3.9,2.6h211.7c2.3,0,4.2-1.9,4.2-4.2V228.2C444.8,226.5,443.8,225,442.2,224.3z
	 M358.9,36.8c1.6-1.6,3.7-2.5,6-2.5c2.3,0,4.4,0.9,6,2.5l19.3,19.3c3.3,3.3,3.3,8.7,0,12.1l-13.7,13.7l-31.4-31.4L358.9,36.8z
	 M339.2,56.5l31.4,31.4l-14.2,14.2L325,70.7L339.2,56.5z M436.4,300.1h-13.5c-2.3,0-4.2,1.9-4.2,4.2c0,2.3,1.9,4.2,4.2,4.2h13.5
	v22.7h-13.5c-2.3,0-4.2,1.9-4.2,4.2s1.9,4.2,4.2,4.2h13.5v22.7h-13.5c-2.3,0-4.2,1.9-4.2,4.2c0,2.3,1.9,4.2,4.2,4.2h13.5v22.7h-13.5
	c-2.3,0-4.2,1.9-4.2,4.2c0,2.3,1.9,4.2,4.2,4.2h13.5v33.7H239.1l66.2-66.2c0.8-0.8,1.2-1.9,1.2-3c0-1.1-0.4-2.2-1.2-3
	c-0.2-0.2-0.4-0.3-0.6-0.5c-1.7-1.1-3.9-0.9-5.4,0.5l-25.8,25.8H70.3c-19.9,0-36-15.6-36.6-35.5l0-0.1l0-0.1c0-1.2,0.1-2.5,0.3-3.7
	c0.1-0.6,0.2-1.2,0.3-1.8l0-0.1c0.1-0.6,0.2-1.1,0.3-1.6l0.1-0.4c0.1-0.5,0.2-0.9,0.3-1.4c0.1-0.2,0.1-0.5,0.2-0.7
	c0.1-0.3,0.2-0.7,0.3-1c0.1-0.3,0.2-0.7,0.3-1c0.1-0.2,0.2-0.5,0.2-0.7c0.2-0.4,0.3-0.8,0.5-1.3l0.1-0.4c0.2-0.5,0.5-1,0.7-1.6
	c5.2-10.8,15.2-18.6,26.9-21l0.1,0c0.5-0.1,1.1-0.2,1.6-0.3l0.3,0c0.5-0.1,1-0.1,1.5-0.2l0.1,0c0.1,0,0.2,0,0.3,0
	c0.5,0,1-0.1,1.5-0.1l0.5,0c0.6,0,1.3,0,1.9,0c2.3,0,4.2-1.9,4.2-4.2v-45.1c0-2.3-1.9-4.2-4.2-4.2s-4.2,1.9-4.2,4.2v41l-1.7,0.2
	c-10.2,1.3-19.4,5.8-26.8,13c-0.7,0.7-1.4,1.4-2.2,2.3l-3.5,3.9V90.8C33.6,72,47,56.1,65.5,52.9l2.3-0.4v189.8
	c0,2.3,1.9,4.2,4.2,4.2s4.2-1.9,4.2-4.2V120h187.4l-37.8,37.8c-1.6,1.6-1.6,4.3,0,6c1.6,1.6,4.3,1.6,6,0l44.9-44.9l0.2-0.3l0.1-0.1
	L319,76.7l31.4,31.4L218.8,239.6l-31.4-31.4l26.1-26.1c1.6-1.6,1.6-4.3,0-6c-0.8-0.8-1.9-1.2-3-1.2s-2.2,0.4-3,1.2l-29.1,29.1
	c-0.1,0.1-0.2,0.2-0.3,0.3l-0.1,0.1c-0.1,0.1-0.1,0.2-0.2,0.3l-0.1,0.1c-0.1,0.1-0.1,0.2-0.2,0.3l-0.1,0.2c0,0.1-0.1,0.2-0.1,0.3
	l-0.1,0.2l-20.3,57.6c-0.1,0.2-0.1,0.4-0.2,0.6l-0.3,1.6h-22.3c-2.3,0-4.2,1.9-4.2,4.2s1.9,4.2,4.2,4.2h172.2c2.3,0,4.2-1.9,4.2-4.2
	s-1.9-4.2-4.2-4.2H171.3l48.9-17.3c0,0,0.1,0,0.1,0c0.1,0,0.2-0.1,0.3-0.1l0.1,0c0.1-0.1,0.2-0.1,0.3-0.2l0.1-0.1
	c0.1-0.1,0.2-0.1,0.3-0.2l0.1-0.1c0.1-0.1,0.2-0.2,0.3-0.3l128.5-128.5h56.8v135.7l-89.5,89.5c-0.8,0.8-1.2,1.9-1.2,3
	c0,1.1,0.4,2.2,1.2,3c0.1,0.1,0.2,0.2,0.3,0.3c1.5,1.2,3.8,1.2,5.3,0c0.1-0.1,0.2-0.2,0.3-0.3l112.8-112.8V300.1z M211.1,243.9
	l-22,7.8L175.4,238l7.8-22L211.1,243.9z"/>
</svg>
