<?xml version="1.0" encoding="utf-8"?>
<!-- Generator: Adobe Illustrator 21.0.2, SVG Export Plug-In . SVG Version: 6.00 Build 0)  -->
<svg version="1.1" id="Слой_1" xmlns="http://www.w3.org/2000/svg" xmlns:xlink="http://www.w3.org/1999/xlink" x="0px" y="0px"
	 viewBox="0 0 470 470" style="enable-background:new 0 0 470 470;" xml:space="preserve">
<rect x="190.4" y="72.6" width="89.1" height="10.2"/>
<rect x="190.4" y="98.9" width="89.1" height="10.2"/>
<rect x="190.4" y="125.2" width="89.1" height="10.2"/>
<rect x="190.4" y="151.5" width="89.1" height="10.2"/>
<path d="M399.3,349.5l-1.3-0.2v-28.1c0-2.8-2.3-5.1-5.1-5.1H240.1v-29.3h41c1.9,0,3.7-1.1,4.5-2.8l26.3-52.6
	c0.8-1.6,0.7-3.4-0.2-4.9c-0.9-1.5-2.6-2.4-4.3-2.4h-67.3V188h60.7c2.8,0,5.1-2.3,5.1-5.1V109h22.7v21.2c0,2.8,2.3,5.1,5.1,5.1h79
	c2.8,0,5.1-2.3,5.1-5.1V77.6c0-2.8-2.3-5.1-5.1-5.1h-79c-2.8,0-5.1,2.3-5.1,5.1v21.2h-22.7V51.3c0-2.8-2.3-5.1-5.1-5.1H169.2
	c-2.8,0-5.1,2.3-5.1,5.1v40.4l-16.6-16.6l-7.2,7.2l16.6,16.6H91.7V109h65.2l-16.6,16.6l7.2,7.2l16.6-16.6v66.7
	c0,2.8,2.3,5.1,5.1,5.1h60.7v35.9h-41c-1.9,0-3.7,1.1-4.5,2.8l-26.3,52.6c-0.8,1.6-0.7,3.4,0.2,4.9c0.9,1.5,2.6,2.4,4.3,2.4h67.3
	V316H77.1c-2.8,0-5.1,2.3-5.1,5.1v28.1l-1.3,0.2c-21.8,3.1-38.2,22.1-38.2,44.1c0,24.6,20,44.6,44.6,44.6s44.6-20,44.6-44.6
	c0-22-16.4-40.9-38.2-44.1l-1.3-0.2v-23.1h95.1v23.1l-1.3,0.2c-21.8,3.1-38.2,22.1-38.2,44.1c0,24.6,20,44.6,44.6,44.6
	s44.6-20,44.6-44.6c0-22-16.4-40.9-38.2-44.1l-1.3-0.2v-23.1h95.1v23.1l-1.3,0.2c-21.8,3.1-38.2,22.1-38.2,44.1
	c0,24.6,20,44.6,44.6,44.6s44.6-20,44.6-44.6c0-22-16.4-40.9-38.2-44.1l-1.3-0.2v-23.1h95.1v23.1l-1.3,0.2
	c-21.8,3.1-38.2,22.1-38.2,44.1c0,24.6,20,44.6,44.6,44.6s44.6-20,44.6-44.6C437.5,371.5,421.1,352.6,399.3,349.5z M338.8,82.7h68.8
	v42.5h-68.8V82.7z M111.5,393.5c0,19-15.4,34.4-34.4,34.4s-34.4-15.4-34.4-34.4s15.4-34.4,34.4-34.4S111.5,374.5,111.5,393.5z
	 M216.8,393.5c0,19-15.4,34.4-34.4,34.4S148,412.5,148,393.5s15.4-34.4,34.4-34.4S216.8,374.5,216.8,393.5z M174.3,177.9V56.4h121.5
	v121.5H174.3z M170.8,276.6l21.2-42.5h107.1l-21.2,42.5H170.8z M322,393.5c0,19-15.4,34.4-34.4,34.4s-34.4-15.4-34.4-34.4
	s15.4-34.4,34.4-34.4S322,374.5,322,393.5z M392.9,427.9c-19,0-34.4-15.4-34.4-34.4s15.4-34.4,34.4-34.4s34.4,15.4,34.4,34.4
	S411.9,427.9,392.9,427.9z"/>
<rect x="368.1" y="151.5" width="10.2" height="10.2"/>
<rect x="368.1" y="177.9" width="10.2" height="10.2"/>
<rect x="368.1" y="204.2" width="10.2" height="10.2"/>
<rect x="368.1" y="230.5" width="10.2" height="10.2"/>
<rect x="368.1" y="256.8" width="10.2" height="10.2"/>
<rect x="341.8" y="256.8" width="10.2" height="10.2"/>
<rect x="315.5" y="256.8" width="10.2" height="10.2"/>
<rect x="65.4" y="98.9" width="10.2" height="10.2"/>
<rect x="39.1" y="98.9" width="10.2" height="10.2"/>
<rect x="203.6" y="250.2" width="62.8" height="10.2"/>
</svg>
