<?xml version="1.0" encoding="utf-8"?>
<!-- Generator: Adobe Illustrator 21.0.2, SVG Export Plug-In . SVG Version: 6.00 Build 0)  -->
<svg version="1.1" id="Слой_1" xmlns="http://www.w3.org/2000/svg" xmlns:xlink="http://www.w3.org/1999/xlink" x="0px" y="0px"
	 viewBox="0 0 470 470" style="enable-background:new 0 0 470 470;" xml:space="preserve" width="44" height="44" fill="#3a4e62">
<style type="text/css">
	.st0{fill:#010002;}
</style>
<path d="M230.6,305.6c-2.2,0-4,1.8-4,4c0,2.2,1.8,4,4,4c13.5,0,24.5,11,24.5,24.5c0,2.2,1.8,4,4,4c2.2,0,4-1.8,4-4
	C263,320.2,248.4,305.7,230.6,305.6z"/>
<path d="M453.7,115.1l-0.2-0.5l-85.1-85.1c-1.5-1.5-4.1-1.5-5.7,0.1l-40.2,40.2c-1.5,1.6-1.5,4.1,0,5.6l7.2,7.2l-6.3,6.3l-1,0.2
	c-15.6,2.9-29.8,10.4-41,21.7l-24.1,24.1l-14.5-14.5c-13.5-13.5-32.1-21.3-51.2-21.3c-0.1,0-0.1,0-0.2,0h-20.2L160.2,88l7.2-7.2
	c1.5-1.6,1.5-4.1,0-5.6l-40.2-40.2c-1.5-1.5-4.1-1.5-5.6,0l-85.5,85.5c-1.5,1.5-1.5,4.1,0,5.6l40.2,40.2c1.6,1.5,4.1,1.5,5.6,0
	l7.2-7.2l6.3,6.3l0.2,1c2.9,15.6,10.4,29.8,21.7,41l52.3,52.3v35.8c-0.1,19.1,7.7,37.9,21.3,51.4l14.3,14.3v15.7H195
	c-2.2,0-4,1.8-4,4v56.9c0,2.2,1.8,4,4,4h120.9c2.2,0,4-1.8,4-4v-56.9c0-2.2-1.8-4-4-4h-10.2v-9l0.5-0.8c9-13.1,13.7-28.4,13.7-44.3
	v-45.8l2.8-0.3c3.9-0.5,7.6-2.3,10.4-5l35.3-35.3c13.7-13.7,21.2-32,21.3-51.4v-20.2l11.1-11.1l7.2,7.3c1.5,1.5,4.1,1.5,5.6,0
	l40.2-40.2c1.4-1.4,1.5-3.7,0.3-5.3L453.7,115.1z M79.2,157.8l-34.6-34.6l79.9-79.9l34.6,34.6L79.2,157.8z M123.1,201.7
	c-10.6-10.6-17.5-24-19.8-38.9c-0.1-0.8-0.5-1.6-1.1-2.2l-7.2-7.2l59.7-59.7l12.3,12.3c0.8,0.8,1.8,1.2,2.8,1.2h21.8
	c0.1,0,0.1,0,0.2,0c17,0,33.6,6.9,45.6,19l14.4,14.5L237.3,155l-14.5-14.5c-1.6-1.6-4.1-1.6-5.6,0c-1.6,1.6-1.6,4.1,0,5.6l14.5,14.5
	l-29.9,29.9c-3.4,3.4-5.3,8-5.3,12.8c0,7.3,4.4,13.8,11.1,16.7l3.3,1.4l-1.8,3.1c-2.3,3.8-3,8.3-2.1,12.7l2.2,10.4l-29.3-29.3
	c-1.6-1.6-4.1-1.7-5.7-0.1c-1.6,1.5-1.6,4-0.1,5.6l0.1,0.1l27.9,27.9c1.9,1.9,3,4.5,2.9,7.2c-0.1,5.6-4.6,10.1-10.2,10.2
	c-0.2,0-0.3,0-0.5,0c-2.6,0-5-1.1-6.8-3L123.1,201.7z M311.9,384.7v48.9H199v-48.9H311.9z M311.9,322.7c0,15-4.6,29.4-13.5,41.5
	c-0.5,0.7-0.7,1.5-0.7,2.3v10.2h-84.5v-17.4c0-1.1-0.4-2.1-1.2-2.8l-15.4-15.4c-12.1-12-19-28.7-19-45.8V268l5.2,4.6
	c3.3,2.9,7.4,4.5,11.8,4.5h0.1c10-0.1,18.2-8.2,18.2-18.2c0-1.9-0.3-3.8-1-5.6l-2.6-7.5l7,3.7c2.3,1.2,4.8,1.9,7.4,2.1l2.8,0.2
	l0.2,2.8c0.5,9.3,7.9,16.7,17.1,17.2l2.8,0.2l0.2,2.8c0.5,9.6,8.5,17.2,18.1,17.3c0,0,0,0,0.1,0c4.8,0,9.4-1.9,12.7-5.3l24.3-24.3
	l1.9,4c1.5,3.1,3.7,5.7,6.6,7.5l1.4,0.9V322.7z M382.8,160.2c-0.7,0.8-1.2,1.7-1.2,2.8v21.8c-0.1,17.3-6.8,33.5-18.9,45.7
	l-35.3,35.3c-1.9,1.9-4.5,2.9-7.1,2.9c0,0,0,0,0,0c-5.6-0.1-10.2-4.6-10.2-10.2c0-2.7,1-5.3,2.9-7.2l35.3-35.3
	c0.7-0.7,1.1-1.7,1.1-2.8c0-1.1-0.4-2.1-1.2-2.8c-1.5-1.5-4-1.5-5.5,0L272.2,281c-1.9,1.9-4.5,2.9-7.1,2.9c0,0,0,0,0,0
	c-5.6-0.1-10.2-4.6-10.2-10.2c0-2.7,1-5.3,3-7.2l45.3-45.3c0.7-0.7,1.1-1.7,1.1-2.8c0-1.1-0.4-2.1-1.2-2.8c-1.5-1.5-4-1.5-5.5,0
	l-45.3,45.3c-1.9,1.9-4.5,2.9-7.1,2.9c0,0,0,0,0,0c-5.7-0.1-10.2-4.6-10.2-10.2c0-2.7,1-5.3,2.9-7.2l45.3-45.3
	c1.5-1.6,1.5-4.1,0-5.6c-0.8-0.8-1.7-1.2-2.8-1.2h0c-1.1,0-2.1,0.4-2.8,1.2l-45.5,45.3c-1.9,1.9-4.5,2.9-7.1,2.9
	c-5.6-0.1-10.2-4.6-10.3-10.2c0-2.7,1-5.3,2.9-7.2l45.3-45.3c0.7-0.8,1.2-1.8,1.2-2.8c0-1.1-0.4-2.1-1.2-2.8
	c-0.8-0.8-1.8-1.2-2.8-1.2c0,0,0,0,0,0c-1.1,0-2.1,0.4-2.8,1.2l-35.3,35.3c-1.9,1.9-4.5,2.9-7.1,2.9c0,0,0,0,0,0
	c-5.6-0.1-10.2-4.6-10.2-10.2c0-2.7,1-5.3,2.9-7.2l79.7-79.7c10.6-10.6,24-17.5,38.9-19.8c0.8-0.1,1.6-0.5,2.2-1.1l7.2-7.2
	l59.8,59.8L382.8,160.2z M410.8,152.4l-79.9-79.9l34.6-34.6l79.9,79.9L410.8,152.4z"/>
</svg>
