<?xml version="1.0" encoding="utf-8"?>
<!-- Generator: Adobe Illustrator 21.0.2, SVG Export Plug-In . SVG Version: 6.00 Build 0)  -->
<svg version="1.1" id="Слой_1" xmlns="http://www.w3.org/2000/svg" xmlns:xlink="http://www.w3.org/1999/xlink" x="0px" y="0px"
	 viewBox="0 0 470 470" style="enable-background:new 0 0 470 470;" xml:space="preserve">
<style type="text/css">
	.st0{fill:#010002;}
</style>
<path d="M26,136.4c0,2.2,1.8,4,4,4c2.2,0,4-1.8,4-4V91.9c0-4.4,3.6-8,8-8H166l0.2,1.7c0.3,2.1,0.9,4.1,1.8,6l0.6,1.3l-53,48
	l-1.3-0.8c-3.4-2.2-7.3-3.4-11.4-3.4c-11.5,0-20.8,9.3-20.8,20.8c0,11.5,9.3,20.8,20.8,20.8c11.5,0,20.8-9.3,20.8-20.8
	c0-3.2-0.7-6.3-2.2-9.2L121,147l52.9-47.9l1.3,0.9c3.5,2.4,7.5,3.7,11.8,3.7c5.7,0,11-2.3,15-6.4l1.1-1.1l43.6,25.9l-0.3,1.4
	c-0.3,1.4-0.4,2.8-0.4,4.1c0,11.5,9.3,20.8,20.8,20.8c11.5,0,20.8-9.3,20.8-20.8c0-2.9-0.6-5.7-1.8-8.4l-0.6-1.3l37-33.9h94.5
	c4.4,0,8,3.6,8,8v148.7c0,2.2,1.8,4,4,4c2.2,0,4-1.8,4-4V91.9c0-8.9-7.2-16.1-16.1-16.1h-62l4.6-3.6c5.1-4,8.1-10,8.1-16.4
	c0-11.5-9.3-20.8-20.8-20.8s-20.8,9.3-20.8,20.8c0,3.4,0.8,6.7,2.4,9.7l0.7,1.4l-9.8,8.9H206.6l-0.5-1.2
	c-3.3-7.7-10.8-12.7-19.2-12.7s-15.9,5-19.2,12.7l-0.5,1.2H42.1c-8.9,0-16.1,7.2-16.1,16.1V136.4z M103,170.3
	c-7.1,0-12.8-5.7-12.8-12.8c0-7.1,5.7-12.8,12.8-12.8c7.1,0,12.8,5.7,12.8,12.8C115.7,164.6,110,170.3,103,170.3z M346.5,43
	c7.1,0,12.8,5.7,12.8,12.8c0,3.4-1.3,6.6-3.8,9c-2.4,2.4-5.6,3.8-9,3.8c-7.1,0-12.8-5.7-12.8-12.8S339.5,43,346.5,43z M266.7,140.3
	c-7.1,0-12.8-5.7-12.8-12.8c0-7.1,5.7-12.8,12.8-12.8c7.1,0,12.8,5.7,12.8,12.8C279.5,134.5,273.8,140.3,266.7,140.3z M207.1,87.5
	c0.1-0.6,0.3-1.3,0.4-1.9l0.2-1.7h102.5l-30.2,27.6l-1.3-0.9c-3.6-2.6-7.7-3.9-12.1-3.9c-5.9,0-11.5,2.5-15.4,6.9l-1.1,1.2L206.8,89
	L207.1,87.5z M186.9,70c7.1,0,12.8,5.7,12.8,12.8c0,7.1-5.7,12.8-12.8,12.8s-12.8-5.7-12.8-12.8C174.1,75.7,179.8,70,186.9,70z"/>
<path d="M432.7,316.1l0-51.4c0-2.2-1.8-4-4-4s-4,1.8-4,4V312h-48.3v-194c0-2.2-1.8-4-4-4h-45.3c-2.2,0-4,1.8-4,4v194h-26.5v-82.1
	c0-2.2-1.8-4-4-4h-45.3c-2.2,0-4,1.8-4,4V312h-26.5V152.2c0-2.2-1.8-4-4-4h-45.3c-2.2,0-4,1.8-4,4v83.1c0,2.2,1.8,4,4,4
	c2.2,0,4-1.8,4-4v-29.7h37.2V312h-37.2v-52.6c0-2.2-1.8-4-4-4c-2.2,0-4,1.8-4,4V312h-26.5v-82.1c0-2.2-1.8-4-4-4H87.6
	c-2.2,0-4,1.8-4,4V312H34V160.4c0-2.2-1.8-4-4-4s-4,1.8-4,4v199.2c0,8.9,7.2,16.1,16.1,16.1h134.1l-3.9,33.9h-30.4c-2.2,0-4,1.8-4,4
	v21.1c0,2.2,1.8,4,4,4h175c2.2,0,4-1.8,4-4v-21.1c0-2.2-1.8-4-4-4h-30.4l-3.9-33.9h134.1c8.9,0,16.1-7.2,16.1-16.1
	C432.7,359.6,432.7,316.5,432.7,316.1z M331.1,122h37.2v16.9h-37.2V122z M331.1,146.9h37.2v16.5h-37.2V146.9z M331.1,171.4h37.2V312
	h-37.2V171.4z M251.3,233.9h37.2v16.9h-37.2V233.9z M251.3,258.8h37.2v16.5h-37.2V258.8z M251.3,283.4h37.2V312h-37.2V283.4z
	 M171.5,156.2h37.2v16.9h-37.2V156.2z M171.5,197.6v-16.5h37.2v16.5H171.5z M91.6,233.9h37.2v16.9H91.6V233.9z M91.6,258.8h37.2
	v16.5H91.6V258.8z M91.6,283.4h37.2V312H91.6V283.4z M312.9,417.6v13.1h-167v-13.1H312.9z M180.3,409.6l3.9-33.9h90.3l3.9,33.9
	H180.3z M424.7,359.6c0,2.1-0.8,4.2-2.3,5.7s-3.5,2.4-5.7,2.4H42.1c-4.4,0-8-3.6-8-8v-39.4h390.7V359.6z"/>
</svg>
