<?xml version="1.0" encoding="utf-8"?>
<!-- Generator: Adobe Illustrator 21.0.2, SVG Export Plug-In . SVG Version: 6.00 Build 0)  -->
<svg version="1.1" id="Слой_1" xmlns="http://www.w3.org/2000/svg" xmlns:xlink="http://www.w3.org/1999/xlink" x="0px" y="0px"
	 viewBox="0 0 470 470" style="enable-background:new 0 0 470 470;" xml:space="preserve">
<style type="text/css">
	.st0{fill:#010002;}
</style>
<path d="M402.5,156c0-3.4-107.4-111.8-111.2-111.8c-33,0-71.7,0-101.8,0c-34.1,0-66.6,0-98,0c-13.6,0-18.1,4.7-18.1,18.4
	c0,42.1,0,84.2,0,126.3l0,48.6l0,54.1c0,40.1,0,81.6,0,122.4c0,11.5,5.3,16.8,16.5,16.8c98.2,0.1,197.8,0.1,296,0
	c11.3,0,16.5-5.4,16.5-16.8c0-64.7,0-129.4,0-194L402.5,156z M387.9,416.1H88.2V59h185.8l0,39.5c0,18.7,0,38.1,0,57.2
	c0,12.4,4.6,17,17,17.1c18.5,0.1,37.3,0.1,56.4,0l40.5,0V416.1z M288.7,158.4V57.7l99.6,100.7H288.7z"/>
<path d="M343.7,295l-0.8-0.4c-2.8-1.3-5.7-2.6-8.4-2.8c-8.3-0.4-16.7-0.6-24.8-0.9c-6.1-0.2-12.1-0.3-18.2-0.6
	c-3.7-0.1-7.5-0.4-10.6-2c-22.5-11.9-37.9-31.9-48.3-62.8c-0.5-1.5-0.7-3.3-0.6-5.3c1.2-18.1,2.5-36.2,3.9-54.3
	c0.4-4.8-0.5-8.2-2.7-10.3c-1.7-1.6-4.2-2.4-7.5-2.4c-0.9,0-1.8,0.1-2.8,0.2c-5.9,0.7-7.6,4.4-8.6,11.1c-2.7,18.8,0.6,37.1,3.7,51
	c1.4,6,1.5,11,0.3,14.8c-9.2,29.6-23.3,60.1-44.4,96l-0.4,0.7l-0.8,0.1c-1.1,0.1-2.2,0.1-3.3,0.1c-1.8,0-3.3,0-4.3,0.6
	c-17.7,9.5-28.9,19.3-36.2,31.7c-3.3,5.6-5.6,10.3-1.6,15.1c4,4.7,12.2,5.7,17.8,2c7.3-4.7,12.6-9.3,16.4-14.1
	c4.9-6.2,9.6-12.9,14-19.4c3.6-5.2,7.3-10.6,11.2-15.7c1.7-2.2,6.1-7.5,11.6-9c20.6-5.5,39-9.9,56.1-13.3
	c13.5-2.7,28.7-5.7,42.9,4.2c3.1,2.2,7.5,3.1,10.6,3.6l3.1,0.5c9.5,1.6,19.3,3.3,29,3.8c2,0.1,7.9,0.4,10-10.6
	C351.2,301.3,349.1,297.5,343.7,295z M141.5,370l-5.7-4.8l27-31.6l5.1,4.8L141.5,370z M224,162.6l7.4,0.7l-2.8,25L224,188V162.6z
	 M197.3,311.7l29.3-63.9l35,45.6L197.3,311.7z M342.1,310.6l-27-5.4l1.1-6l27.3,4.5L342.1,310.6z"/>
</svg>
