<?xml version="1.0" encoding="utf-8"?>
<!-- Generator: Adobe Illustrator 21.0.2, SVG Export Plug-In . SVG Version: 6.00 Build 0)  -->
<svg version="1.1" id="Слой_1" xmlns="http://www.w3.org/2000/svg" xmlns:xlink="http://www.w3.org/1999/xlink" x="0px" y="0px"
	 viewBox="0 0 470 470" style="enable-background:new 0 0 470 470;" xml:space="preserve" fill="#416075">
<path d="M169.6,215.3c-52.9,20.9-89.3,19.8-90.9,19.7c-0.1,0-0.2,0-0.2,0c-1.1,0-2,0.4-2.8,1.1c-0.8,0.8-1.3,1.8-1.4,2.9
	c-0.1,1.1,0.3,2.2,1.1,3c0.8,0.8,1.8,1.3,2.9,1.4c0.2,0,1.1,0,2.6,0c9.3,0,43.4-1.4,91-20c32.3-12.6,64.1-30.6,94.6-53.4
	c35.1-26.2,68.6-59,99.7-97.5l3.6-4.5l3.5,24.8c0.3,2.3,2.4,3.9,4.7,3.6c1.1-0.2,2.1-0.7,2.8-1.6c0.7-0.9,1-2,0.8-3.1l-4.9-35.2
	c-0.2-1.1-0.8-2.1-1.7-2.8c-0.9-0.7-2-0.9-3.1-0.8L333,58.9c-2.3,0.4-3.9,2.5-3.5,4.8c0.2,1.1,0.8,2.1,1.7,2.8
	c0.9,0.7,2,0.9,3.1,0.8l29-4.4l-4.1,5c-30.4,37.6-63.1,69.6-97.3,95.2C232.1,185.3,201,202.9,169.6,215.3z"/>
<path d="M459.6,414.2h-62.4l6.9-4.6c4.4-2.9,8.4-6.2,12.1-9.9c14.8-14.8,22.9-34.4,22.9-55.3c0-20.9-8.1-40.6-22.9-55.3
	c-5.1-5.1-10.9-9.5-17.3-13l-1.3-0.7v-28.5c0-2.3-1.9-4.2-4.2-4.2s-4.2,1.9-4.2,4.2v24.6l-3.3-1.1c-17.7-6-37.1-5.4-54.4,1.6
	l-3.4,1.4v-86c0-2.2,1.8-4.1,4.1-4.1h53c2.2,0,4.1,1.8,4.1,4.1v16.6c0,2.3,1.9,4.2,4.2,4.2s4.2-1.9,4.2-4.2v-16.6
	c0-6.9-5.6-12.5-12.5-12.5h-53c-6.9,0-12.5,5.6-12.5,12.5v90.6l-1.1,0.7c-4.7,3-9.1,6.5-13,10.5c-14.8,14.8-22.9,34.4-22.9,55.3
	c0,20.9,8.1,40.6,22.9,55.3c3.7,3.7,7.8,7.1,12.1,9.9l6.9,4.6h-53.1V248c0-6.9-5.6-12.5-12.5-12.5h-53c-6.9,0-12.5,5.6-12.5,12.5
	v166.3h-48.2V303.1c0-6.9-5.6-12.5-12.5-12.5h-53c-6.9,0-12.5,5.6-12.5,12.5v111.1H34.8v-347c0-5.4-4.4-9.9-9.9-9.9H14.4
	c-5.4,0-9.9,4.4-9.9,9.9v47.6c0,2.3,1.9,4.2,4.2,4.2c2.3,0,4.2-1.9,4.2-4.2v-49h13.5v347c0,5.4,4.4,9.9,9.9,9.9h424.8v15.1H12.9
	V157.1c0-2.3-1.9-4.2-4.2-4.2c-2.3,0-4.2,1.9-4.2,4.2v279.2c0,5.4,4.4,9.9,9.9,9.9h445.3c5.4,0,9.9-4.4,9.9-9.9v-12.2
	C469.5,418.7,465.1,414.2,459.6,414.2z M137,414.2H75.8V303.1c0-2.2,1.8-4.1,4.1-4.1h53c2.2,0,4.1,1.8,4.1,4.1V414.2z M263.1,414.2
	H202V248c0-2.2,1.8-4.1,4.1-4.1h53c2.2,0,4.1,1.8,4.1,4.1V414.2z M391.8,407.1c-0.1,0-0.1,0.1-0.2,0.1c-7,3.4-14.6,5.6-22.4,6.6
	l-0.4,0c-0.5,0.1-1.1,0.1-1.6,0.2c-0.8,0.1-1.6,0.1-2.5,0.2l-0.8,0c-1,0-2,0.1-3,0.1c-1,0-2,0-3-0.1c-0.3,0-0.6,0-1,0
	c-0.8,0-1.5-0.1-2.3-0.2c-0.6-0.1-1.3-0.1-1.9-0.2c-0.4-0.1-0.9-0.1-1.3-0.2c-0.6-0.1-1.3-0.2-1.9-0.3l-0.3-0.1
	c-8.2-1.4-16-4.2-23.2-8.3c-0.1,0-0.1-0.1-0.2-0.1c-5.3-3.1-10.1-6.8-14.4-11.1C298.3,380.6,291,363,291,344.4s7.3-36.2,20.5-49.4
	c4.9-4.9,10.6-9.1,16.7-12.3l0.5-0.3c9.9-5.1,21-7.8,32.2-7.8c9,0,17.7,1.7,26,5l0.4,0.2c0.9,0.4,1.7,0.7,2.6,1.1
	c0.3,0.1,0.6,0.3,1,0.4c7.3,3.5,13.8,8.1,19.4,13.7c27.2,27.2,27.2,71.6,0,98.8c-5.4,5.4-11.6,9.9-18.5,13.3L391.8,407.1z"/>
</svg>
