<?xml version="1.0" encoding="utf-8"?>
<!-- Generator: Adobe Illustrator 21.0.2, SVG Export Plug-In . SVG Version: 6.00 Build 0)  -->
<svg version="1.1" id="Слой_1" xmlns="http://www.w3.org/2000/svg" xmlns:xlink="http://www.w3.org/1999/xlink" x="0px" y="0px"
	 viewBox="0 0 470 470" style="enable-background:new 0 0 470 470;" xml:space="preserve" fill="#416075">
<path d="M54.5,411.6c-28.3,0-51.4,23-51.4,51.4c0,2.4,1.9,4.3,4.3,4.3h94.1c2.4,0,4.3-1.9,4.3-4.3
	C105.9,434.7,82.8,411.6,54.5,411.6z M97.2,458.7H11.8l0.9-4.2c3.4-16.8,16.5-29.8,33.3-33.2l4.2-0.9V436h8.7v-15.6l4.2,0.9
	c16.8,3.4,29.9,16.5,33.3,33.2L97.2,458.7z"/>
<path d="M462.2,341.1H446l-0.9-2.2c-0.5-1.1-0.9-2.2-1.3-3.1l-1-2.2l11.4-11.4c0.8-0.8,1.3-1.9,1.3-3.1c0-1.2-0.5-2.2-1.3-3.1
	L421,282.7c-0.8-0.8-2-1.3-3.2-1.2l-1.8,0.1l-12.6,12.6l-2.2-1c-0.9-0.4-1.9-0.8-3.1-1.3l-2.2-0.9v-11.8h3.5c3.8,0,7.6-0.7,11.7-2.2
	l2.5-0.9l2.4-1.3c11.8-6.3,19.1-18.3,19.1-31.4V39.7c0-19.7-16-35.7-35.7-35.7H38.8C19.2,4,3.1,20,3.1,39.7v203.8
	c0,19.7,16,35.7,35.7,35.7H147l-33.4,61.9h-16c-13.2,0-23.9,10.7-23.9,23.9s10.7,23.9,23.9,23.9h172v3.5c0,2.4,1.9,4.3,4.3,4.3h16.1
	l0.9,2.2c0.5,1.2,0.9,2.2,1.3,3.1l1,2.2l-11.4,11.4c-1.7,1.7-1.7,4.4,0,6.1l33.3,33.3c0.8,0.8,1.9,1.3,3.1,1.3s2.2-0.5,3.1-1.3
	l11.4-11.4l2.2,1c0.9,0.4,1.9,0.8,3.1,1.3l2.2,0.9V463c0,2.4,1.9,4.3,4.3,4.3h47c2.4,0,4.3-1.9,4.3-4.3v-16.1l2.2-0.9
	c1.2-0.5,2.2-0.9,3.1-1.3l2.2-1l11.4,11.4c0.8,0.8,1.9,1.3,3.1,1.3c1.2,0,2.2-0.5,3.1-1.3l33.3-33.3c0.8-0.8,1.3-1.9,1.3-3.1
	c0-1.2-0.5-2.2-1.3-3.1l-11.4-11.4l1-2.2c0.4-0.9,0.8-2,1.3-3.1l0.9-2.2h16.1c2.4,0,4.3-1.9,4.3-4.3v-47
	C466.5,343,464.6,341.1,462.2,341.1z M11.8,39.7c0-14.9,12.1-27,27-27h360.6c14.9,0,27,12.1,27,27v168.1H11.8V39.7z M38.8,270.5
	c-14.9,0-27-12.1-27-27v-27h414.6v27c0,14.9-12.1,27-27,27H38.8z M340.2,279.2V291l-2.2,0.9c-1.2,0.5-2.2,0.9-3.1,1.3l-2.2,1
	l-14.5-14.5l-15.3,15.3l-10.7-15.7H340.2z M269.7,380.3h-172c-8.4,0-15.3-6.8-15.3-15.3s6.8-15.3,15.3-15.3h172V380.3z M123.5,341.1
	l33.4-61.9h124.9l15,22L281.9,316c-1.7,1.7-1.7,4.4,0,6.1l11.4,11.4l-1,2.2c-0.4,1-0.9,2-1.3,3.1l-0.9,2.2H123.5z M457.8,388.1
	h-14.9c-1.9,0-3.6,1.2-4.1,3c-1.3,4-2.9,8-5,12c-0.9,1.7-0.6,3.7,0.8,5.1l10.6,10.6L418,445.9l-10.6-10.6c-1.3-1.3-3.4-1.7-5.1-0.8
	c-3.9,2.1-8,3.8-12,5c-1.8,0.6-3,2.2-3,4.1v14.9h-38.4v-14.9c0-1.9-1.2-3.6-3-4.1c-4-1.3-8-2.9-12-5c-1.7-0.9-3.7-0.6-5.1,0.8
	l-10.6,10.6l-27.1-27.1l10.6-10.6c1.3-1.3,1.7-3.4,0.8-5.1c-2.1-3.9-3.8-8-5-12c-0.6-1.8-2.2-3-4.1-3h-14.9v-38.4h14.9
	c1.9,0,3.6-1.2,4.1-3c1.3-4,2.9-8,5-12c0.9-1.7,0.6-3.7-0.8-5.1L291.1,319l27.1-27.1l10.6,10.6c1.3,1.4,3.4,1.7,5.1,0.8
	c4-2.1,8-3.8,12-5c1.8-0.6,3-2.2,3-4.1v-14.9h38.4v14.9c0,1.9,1.2,3.6,3,4.1c4,1.3,8,2.9,12,5c1.7,0.9,3.7,0.6,5.1-0.8l10.6-10.6
	l27.1,27.1l-10.6,10.6c-1.3,1.3-1.7,3.4-0.8,5.1c2.1,3.9,3.8,8,5,12c0.6,1.8,2.2,3,4.1,3h14.9V388.1z"/>
<path d="M411.6,368.9c0-24-19.5-43.5-43.5-43.5c-24,0-43.5,19.5-43.5,43.5c0,24,19.5,43.5,43.5,43.5
	C392.1,412.5,411.6,392.9,411.6,368.9z M368.1,403.8c-19.2,0-34.9-15.6-34.9-34.9s15.6-34.9,34.9-34.9c19.2,0,34.9,15.6,34.9,34.9
	S387.3,403.8,368.1,403.8z"/>
<path d="M149.2,60.9l-6.1-6.1l-52.4,52.4c-0.8,0.8-1.3,1.9-1.3,3.1c0,1.2,0.5,2.2,1.3,3.1l52.4,52.4l6.1-6.1l-49.3-49.3L149.2,60.9z
	"/>
<path d="M271.7,54.8l-6.1,6.1l49.3,49.3l-49.3,49.3l6.1,6.1l52.4-52.4c0.8-0.8,1.3-1.9,1.3-3.1c0-1.2-0.5-2.2-1.3-3.1L271.7,54.8z"
	/>
<rect x="132" y="98.1" transform="matrix(0.4472 -0.8944 0.8944 0.4472 23.023 242.0869)" width="150.7" height="8.7"/>
<rect x="308.9" y="160.8" width="8.7" height="8.7"/>
<rect x="340.2" y="160.8" width="8.7" height="8.7"/>
<rect x="371.6" y="160.8" width="8.7" height="8.7"/>
</svg>
