<?xml version="1.0" encoding="utf-8"?>
<!-- Generator: Adobe Illustrator 21.0.2, SVG Export Plug-In . SVG Version: 6.00 Build 0)  -->
<svg version="1.1" id="Слой_1" xmlns="http://www.w3.org/2000/svg" xmlns:xlink="http://www.w3.org/1999/xlink" x="0px" y="0px"
	 viewBox="0 0 470 470" style="enable-background:new 0 0 470 470;" xml:space="preserve">
<style type="text/css">
	.st0{fill:#010002;}
</style>
<path d="M371.1,396.9H339v-38.2c0-45.1-24.6-86.5-64.3-108l-2.7-1.5l2.7-1.5c39.6-21.5,64.3-62.9,64.3-108v-38.2h32.1
	c9.1,0,16.6-7.4,16.6-16.6s-7.4-16.6-16.6-16.6H127.9c-9.1,0-16.6,7.4-16.6,16.6s7.4,16.6,16.6,16.6h32.1v38.2
	c0,45.1,24.6,86.5,64.3,108l2.7,1.5l-2.7,1.5c-39.6,21.5-64.3,62.9-64.3,108v38.2h-32.1c-9.1,0-16.6,7.4-16.6,16.6
	c0,9.1,7.4,16.6,16.6,16.6h243.2c9.1,0,16.6-7.4,16.6-16.6C387.7,404.3,380.3,396.9,371.1,396.9z M127.9,92.8
	c-4.3,0-7.8-3.5-7.8-7.8c0-4.3,3.5-7.8,7.8-7.8h243.2c4.3,0,7.8,3.5,7.8,7.8c0,4.3-3.5,7.8-7.8,7.8H127.9z M168.8,139.8v-38.2h161.5
	v38.2c0,45.7-27.1,86.9-69.1,104.9l-0.3,0.1h-22.5l-0.3-0.1C195.9,226.7,168.8,185.5,168.8,139.8z M168.8,358.7
	c0-45.7,27.1-86.9,69.1-104.9l0.3-0.1h22.5l0.3,0.1c42,18,69.1,59.2,69.1,104.9v36.5h-3.3c0-2.4-2-4.4-4.4-4.4c-2.4,0-4.4,2-4.4,4.4
	v1.7h-15.5v-1.7c0-2.4-2-4.4-4.4-4.4s-4.4,2-4.4,4.4v1.7h-15.5v-1.7c0-2.4-2-4.4-4.4-4.4c-2.4,0-4.4,2-4.4,4.4v1.7h-15.5v-1.7
	c0-2.4-2-4.4-4.4-4.4c-2.4,0-4.4,2-4.4,4.4v1.7h-15.5v-1.7c0-2.4-2-4.4-4.4-4.4c-2.4,0-4.4,2-4.4,4.4v1.7h-15.5v-1.7
	c0-2.4-2-4.4-4.4-4.4c-2.4,0-4.4,2-4.4,4.4v1.7h-15.5v-1.7c0-2.4-2-4.4-4.4-4.4c-2.4,0-4.4,2-4.4,4.4h-3.3V358.7z M371.1,421.2
	H127.9c-4.3,0-7.8-3.5-7.8-7.8c0-4.3,3.5-7.8,7.8-7.8h243.2c4.3,0,7.8,3.5,7.8,7.8C378.9,417.7,375.4,421.2,371.1,421.2z"/>
<circle cx="188.7" cy="383.1" r="4.4"/>
<circle cx="213" cy="383.1" r="4.4"/>
<circle cx="237.3" cy="383.1" r="4.4"/>
<circle cx="261.7" cy="383.1" r="4.4"/>
<circle cx="286" cy="383.1" r="4.4"/>
<circle cx="310.3" cy="383.1" r="4.4"/>
<circle cx="200.8" cy="370.9" r="4.4"/>
<circle cx="225.2" cy="370.9" r="4.4"/>
<circle cx="249.5" cy="267.5" r="4.4"/>
<circle cx="213" cy="200.6" r="4.4"/>
<circle cx="237.3" cy="200.6" r="4.4"/>
<circle cx="261.7" cy="200.6" r="4.4"/>
<circle cx="286" cy="200.6" r="4.4"/>
<circle cx="273.8" cy="188.5" r="4.4"/>
<circle cx="286" cy="176.3" r="4.4"/>
<circle cx="225.2" cy="188.5" r="4.4"/>
<circle cx="249.5" cy="188.5" r="4.4"/>
<circle cx="213" cy="176.3" r="4.4"/>
<circle cx="225.2" cy="212.8" r="4.4"/>
<circle cx="237.3" cy="225" r="4.4"/>
<circle cx="261.7" cy="225" r="4.4"/>
<circle cx="249.5" cy="212.8" r="4.4"/>
<circle cx="273.8" cy="212.8" r="4.4"/>
<circle cx="249.5" cy="285.8" r="4.4"/>
<circle cx="249.5" cy="304" r="4.4"/>
<circle cx="249.5" cy="322.2" r="4.4"/>
<circle cx="249.5" cy="340.5" r="4.4"/>
<circle cx="249.5" cy="358.7" r="4.4"/>
<circle cx="273.8" cy="370.9" r="4.4"/>
<circle cx="298.1" cy="370.9" r="4.4"/>
</svg>
