<svg id="Слой_1" data-name="Слой 1" xmlns="http://www.w3.org/2000/svg" viewBox="0 0 470 470"  width="44" height="44" fill="#3a4e62"><title>icons(who we are)</title><path d="M394.07,211.88a3.77,3.77,0,0,0,3.37-6.74c-14-7-40.76-7.1-41.89-7.1a3.77,3.77,0,0,0,0,7.54C355.81,205.57,381.61,205.65,394.07,211.88Z"/><path d="M429.12,294.54l-25.88-7.4a5.14,5.14,0,0,1-3.71-4.92v-10l1.08-.75a44.68,44.68,0,0,0,5.68-4.65,43.63,43.63,0,0,0,13.35-31.56V222.8l2.77-5.53a37.47,37.47,0,0,0,3.93-16.67V168.3a3.77,3.77,0,0,0-3.77-3.77H362.25A37.32,37.32,0,0,0,325,201.8v.37a30.75,30.75,0,0,0,3.23,13.67l3.47,6.95v10.83a46.38,46.38,0,0,0,19.07,37.52l1,.75v10.33c0,3.5-2.13,4.47-7,5.86l-13.41,3.83L292.3,277.7l.14-1.89a3.77,3.77,0,0,0-1-2.88l-12.36-13V237.16l.91-.75c1.37-1.13,2.49-2.11,3.51-3.06a71.05,71.05,0,0,0,22.38-51.65v-17l.23-.5a70,70,0,0,0,6.47-29.42v-67A3.77,3.77,0,0,0,308.8,64H215a57.44,57.44,0,0,0-57.38,57.38v13.4a70,70,0,0,0,6.47,29.42l.23.5v14.7A73.94,73.94,0,0,0,190.22,236l.88.75v23.23l-12.37,13a3.78,3.78,0,0,0-1,2.89l.14,1.89-40.34,14.67a30.36,30.36,0,0,0-7.16,3.75l-1.22.87-12.18-6.09,4.91-2.13c17.26-7.51,22.55-17.82,22.77-18.25a3.78,3.78,0,0,0,0-3.37c-4.76-9.53-5.32-26.39-5.77-39.95-.15-4.4-.28-8.56-.55-12.25-2-28.74-23.83-50.41-50.67-50.41S39,186.2,37,214.94c-.26,3.69-.4,7.85-.54,12.25-.45,13.55-1,30.42-5.77,39.94a3.79,3.79,0,0,0,0,3.37c.22.43,5.52,10.73,22.8,18.24l4.91,2.14-21.61,10.8A23.75,23.75,0,0,0,23.56,323v46.3a3.77,3.77,0,0,0,7.54,0V323a16.25,16.25,0,0,1,9-14.61l22.51-11.26,8.56,8.13a23.86,23.86,0,0,0,32.89,0l8.56-8.13,10.86,5.43L122,304.93a30.49,30.49,0,0,0-4.66,16.17v48.24a3.77,3.77,0,0,0,7.54,0V321.1a23.11,23.11,0,0,1,15.17-21.65L182.59,284l18,27a10.47,10.47,0,0,0,16.11,1.59L231.31,298v71.32a3.77,3.77,0,0,0,7.54,0V298l14.59,14.59A10.47,10.47,0,0,0,269.55,311l18-27,42.5,15.45a23.11,23.11,0,0,1,15.17,21.65v48.24a3.77,3.77,0,1,0,7.54,0V321.11a30.48,30.48,0,0,0-8.57-21.2l-2.88-3,5.54-1.58a32.17,32.17,0,0,0,5.42-1.95l1.6-.79,18,18v58.75a3.77,3.77,0,1,0,7.54,0V310.59l17.91-17.91,1.62.82a12.35,12.35,0,0,0,2.22.88l25.89,7.4A16.41,16.41,0,0,1,438.9,317.5v51.85a3.77,3.77,0,1,0,7.54,0V317.5A24,24,0,0,0,429.12,294.54ZM44,227.44c.13-4.1.27-8.35.53-12a49,49,0,0,1,13.37-30.79,41.44,41.44,0,0,1,59.56,0,49,49,0,0,1,13.37,30.79c.25,3.54.39,7.63.53,12l.32,10.08L126.77,230c-6.58-10.13-16.54-17.4-29.63-21.6a76.48,76.48,0,0,0-23-3.66,3.74,3.74,0,0,0-2.6,1.15L60.22,217.62a3.77,3.77,0,0,0,5.43,5.23l10.2-10.58,1.13.06c8.18.4,35.72,3.55,46.47,27.22l.31.68-.11.74a36.44,36.44,0,0,1-72.44-5.65,3.73,3.73,0,0,0-4.39-3.71l-3,.5Zm19.81,57.18-3.35-1.2c-12.35-4.44-18.58-10.48-21.2-13.68l-.92-1.12.52-1.35a66.07,66.07,0,0,0,3.43-14.46l1.26-9.07L47,252.18A44.08,44.08,0,0,0,62.7,271.5l1.08.75ZM98.9,299.84a16.33,16.33,0,0,1-22.51,0L69.18,293l.9-1.68a10.54,10.54,0,0,0,1.23-4.94V276.29l3.25,1a44.29,44.29,0,0,0,26.19,0l3.24-1v10.07a10.52,10.52,0,0,0,1.23,4.95l.9,1.68Zm12.62-15.2V272.3l1.08-.75a43.74,43.74,0,0,0,15.66-19.33l3.52-8.49,1.27,9.11a65.86,65.86,0,0,0,3.43,14.42l.52,1.36-.92,1.12c-2.64,3.22-8.9,9.27-21.2,13.7ZM171.83,179.4V163.85a3.8,3.8,0,0,0-.37-1.64,62.6,62.6,0,0,1-6.33-27.43v-13.4A49.9,49.9,0,0,1,215,71.54H305v63.25a62.6,62.6,0,0,1-6.33,27.43,3.8,3.8,0,0,0-.37,1.64V181.7a62.65,62.65,0,0,1-20,46.15,65.08,65.08,0,0,1-5,4.24l-.19.14A62.06,62.06,0,0,1,235.2,245q-2.16,0-4.33-.14C197.76,242.67,171.83,213.94,171.83,179.4Zm39.56,127.88-1.77-1.77,1.77,1.77a2.86,2.86,0,0,1-2.06.86l-.31,0a2.88,2.88,0,0,1-2.14-1.3l-20.59-30.89,9.12-9.58,33.81,23.11Zm23.69-22.93-36.44-24.91V242.24l3.69,2a67.79,67.79,0,0,0,28,8.1c1.57.1,3.18.15,4.77.15a69.66,69.66,0,0,0,32.71-8l3.66-1.92v16.9Zm28.19,22.5a2.89,2.89,0,0,1-2.15,1.27l-.32,0a2.85,2.85,0,0,1-2-.85L241,289.47l33.81-23.11,9.12,9.58Zm112.38-3.16-17-17,.29-1.34a14.82,14.82,0,0,0,.33-3.18v-6.1l3.28,1.08a41.58,41.58,0,0,0,11.71,2.07l1.37,0a44.07,44.07,0,0,0,13.08-2l3.24-1v5.92a12.48,12.48,0,0,0,.38,3l.35,1.38Zm0-31.95-1.16,0c-19.47-.58-35.32-17.68-35.32-38.11V221.91a3.78,3.78,0,0,0-.4-1.68l-3.87-7.75a23.17,23.17,0,0,1-2.43-10.3v-.37a29.77,29.77,0,0,1,29.74-29.74H418.8V200.6a29.91,29.91,0,0,1-3.14,13.3l-3.16,6.33a3.77,3.77,0,0,0-.4,1.68v13.4a36.44,36.44,0,0,1-36.41,36.44Z"/><path d="M415.86,325.37a3.77,3.77,0,0,0-3.77,3.77v40.21a3.77,3.77,0,1,0,7.54,0V329.13A3.77,3.77,0,0,0,415.86,325.37Z"/><path d="M54.14,333.65a3.77,3.77,0,0,0-3.77,3.77v31.92a3.77,3.77,0,1,0,7.54,0V337.42A3.77,3.77,0,0,0,54.14,333.65Z"/><path d="M184.4,133.75v14.44a3.77,3.77,0,0,0,7.54,0V133.75a2.9,2.9,0,0,1,2.44-2.89,200.5,200.5,0,0,1,41.27-2c20.17,1.34,34.86,6.49,43.68,15.31a3.86,3.86,0,0,0,5.33,0,3.77,3.77,0,0,0,0-5.33c-14.25-14.25-38.46-17.89-59.51-17.89a219.1,219.1,0,0,0-31.88,2.47A10.38,10.38,0,0,0,184.4,133.75Z"/><path d="M161.36,338.77a3.77,3.77,0,0,0-3.77,3.77v26.81a3.77,3.77,0,1,0,7.54,0V342.54A3.77,3.77,0,0,0,161.36,338.77Z"/><path d="M308.8,338.77a3.77,3.77,0,0,0-3.77,3.77v26.81a3.77,3.77,0,0,0,7.54,0V342.54A3.77,3.77,0,0,0,308.8,338.77Z"/></svg>